STARTFONT 2.1
COMMENT Font grabbed from the X server.
FONT -tamentis-Termentis-Medium-R-Normal--12-140-72-72-C-80-ISO10646-1
SIZE 12 72 72
FONTBOUNDINGBOX 5 12 0 -2
STARTPROPERTIES 24
FOUNDRY "tamentis"
FAMILY_NAME "Termentis"
WEIGHT_NAME "Medium"
SLANT "R"
SETWIDTH_NAME "Normal"
ADD_STYLE_NAME ""
PIXEL_SIZE 12
POINT_SIZE 140
RESOLUTION_X 72
RESOLUTION_Y 72
SPACING "C"
AVERAGE_WIDTH 80
CHARSET_REGISTRY "ISO10646"
CHARSET_ENCODING "1"
MIN_SPACE 0
COPYRIGHT "Copyright (C) 2008 Bertrand Janin (tamentis@neopulsar.org)"
WEIGHT 10
RESOLUTION 99
X_HEIGHT 12
QUAD_WIDTH 5
DEFAULT_CHAR 32
FONT_ASCENT 10
FONT_DESCENT 2
_GBDFED_INFO "Edited with gbdfed 1.6."
COMMENT """"""""""""""None""""""""""""""
ENDPROPERTIES
CHARS 476
STARTCHAR char0
ENCODING 0
SWIDTH 416 0
DWIDTH 5 0
BBX 5 12 0 -2
BITMAP
00
D8
88
00
88
88
88
00
88
D8
00
00
ENDCHAR
STARTCHAR char1
ENCODING 1
SWIDTH 416 0
DWIDTH 5 0
BBX 5 12 0 -2
BITMAP
00
00
00
00
20
70
F8
70
20
00
00
00
ENDCHAR
STARTCHAR char2
ENCODING 2
SWIDTH 416 0
DWIDTH 5 0
BBX 5 12 0 -2
BITMAP
A8
50
A8
50
A8
50
A8
50
A8
50
A8
50
ENDCHAR
STARTCHAR char3
ENCODING 3
SWIDTH 416 0
DWIDTH 5 0
BBX 5 12 0 -2
BITMAP
00
A0
A0
E0
A0
A0
00
38
10
10
10
10
ENDCHAR
STARTCHAR char4
ENCODING 4
SWIDTH 416 0
DWIDTH 5 0
BBX 5 12 0 -2
BITMAP
00
E0
80
C0
80
80
00
38
20
30
20
20
ENDCHAR
STARTCHAR char5
ENCODING 5
SWIDTH 416 0
DWIDTH 5 0
BBX 5 12 0 -2
BITMAP
00
40
A0
80
A0
40
00
38
28
30
28
00
ENDCHAR
STARTCHAR char6
ENCODING 6
SWIDTH 416 0
DWIDTH 5 0
BBX 5 12 0 -2
BITMAP
00
80
80
80
80
E0
00
38
20
30
20
20
ENDCHAR
STARTCHAR char7
ENCODING 7
SWIDTH 416 0
DWIDTH 5 0
BBX 5 12 0 -2
BITMAP
00
00
20
50
20
00
00
00
00
00
00
00
ENDCHAR
STARTCHAR char8
ENCODING 8
SWIDTH 416 0
DWIDTH 5 0
BBX 5 12 0 -2
BITMAP
00
00
00
00
20
20
F8
20
20
00
F8
00
ENDCHAR
STARTCHAR char9
ENCODING 9
SWIDTH 416 0
DWIDTH 5 0
BBX 5 12 0 -2
BITMAP
00
00
90
D0
B0
90
00
40
40
40
78
00
ENDCHAR
STARTCHAR char10
ENCODING 10
SWIDTH 416 0
DWIDTH 5 0
BBX 5 12 0 -2
BITMAP
00
90
90
60
60
00
00
70
20
20
20
00
ENDCHAR
STARTCHAR char11
ENCODING 11
SWIDTH 416 0
DWIDTH 5 0
BBX 5 12 0 -2
BITMAP
20
20
20
20
20
20
E0
00
00
00
00
00
ENDCHAR
STARTCHAR char12
ENCODING 12
SWIDTH 416 0
DWIDTH 5 0
BBX 5 12 0 -2
BITMAP
00
00
00
00
00
00
E0
20
20
20
20
20
ENDCHAR
STARTCHAR char13
ENCODING 13
SWIDTH 416 0
DWIDTH 5 0
BBX 5 12 0 -2
BITMAP
00
00
00
00
00
00
38
20
20
20
20
20
ENDCHAR
STARTCHAR char14
ENCODING 14
SWIDTH 416 0
DWIDTH 5 0
BBX 5 12 0 -2
BITMAP
20
20
20
20
20
20
38
00
00
00
00
00
ENDCHAR
STARTCHAR char15
ENCODING 15
SWIDTH 416 0
DWIDTH 5 0
BBX 5 12 0 -2
BITMAP
20
20
20
20
20
20
F8
20
20
20
20
20
ENDCHAR
STARTCHAR char18
ENCODING 18
SWIDTH 416 0
DWIDTH 5 0
BBX 5 12 0 -2
BITMAP
00
00
00
00
00
00
FF
00
00
00
00
00
ENDCHAR
STARTCHAR char21
ENCODING 21
SWIDTH 416 0
DWIDTH 5 0
BBX 5 12 0 -2
BITMAP
20
20
20
20
20
20
38
20
20
20
20
20
ENDCHAR
STARTCHAR char22
ENCODING 22
SWIDTH 416 0
DWIDTH 5 0
BBX 5 12 0 -2
BITMAP
20
20
20
20
20
20
E0
20
20
20
20
20
ENDCHAR
STARTCHAR char23
ENCODING 23
SWIDTH 416 0
DWIDTH 5 0
BBX 5 12 0 -2
BITMAP
20
20
20
20
20
20
F8
00
00
00
00
00
ENDCHAR
STARTCHAR char24
ENCODING 24
SWIDTH 416 0
DWIDTH 5 0
BBX 5 12 0 -2
BITMAP
00
00
00
00
00
00
F8
20
20
20
20
20
ENDCHAR
STARTCHAR char25
ENCODING 25
SWIDTH 416 0
DWIDTH 5 0
BBX 5 12 0 -2
BITMAP
20
20
20
20
20
20
20
20
20
20
20
20
ENDCHAR
STARTCHAR char26
ENCODING 26
SWIDTH 416 0
DWIDTH 5 0
BBX 5 12 0 -2
BITMAP
00
00
00
00
10
20
40
20
10
00
70
00
ENDCHAR
STARTCHAR char27
ENCODING 27
SWIDTH 416 0
DWIDTH 5 0
BBX 5 12 0 -2
BITMAP
00
00
00
00
40
20
10
20
40
00
70
00
ENDCHAR
STARTCHAR char28
ENCODING 28
SWIDTH 416 0
DWIDTH 5 0
BBX 5 12 0 -2
BITMAP
00
00
00
00
00
38
20
20
20
20
20
20
ENDCHAR
STARTCHAR char29
ENCODING 29
SWIDTH 416 0
DWIDTH 5 0
BBX 5 12 0 -2
BITMAP
00
00
00
00
02
7E
08
10
7E
40
00
00
ENDCHAR
STARTCHAR char30
ENCODING 30
SWIDTH 416 0
DWIDTH 5 0
BBX 5 12 0 -2
BITMAP
00
00
18
24
20
20
78
20
20
20
22
7E
ENDCHAR
STARTCHAR char31
ENCODING 31
SWIDTH 416 0
DWIDTH 5 0
BBX 5 12 0 -2
BITMAP
00
00
00
00
00
00
10
10
00
00
00
00
ENDCHAR
STARTCHAR char32
ENCODING 32
SWIDTH 416 0
DWIDTH 5 0
BBX 5 12 0 -2
BITMAP
00
00
00
00
00
00
00
00
00
00
00
00
ENDCHAR
STARTCHAR char33
ENCODING 33
SWIDTH 416 0
DWIDTH 5 0
BBX 5 12 0 -2
BITMAP
00
20
20
20
20
20
20
00
20
20
00
00
ENDCHAR
STARTCHAR char34
ENCODING 34
SWIDTH 416 0
DWIDTH 5 0
BBX 5 12 0 -2
BITMAP
00
00
50
50
50
00
00
00
00
00
00
00
ENDCHAR
STARTCHAR char35
ENCODING 35
SWIDTH 416 0
DWIDTH 5 0
BBX 5 12 0 -2
BITMAP
00
00
50
50
F8
50
50
F8
50
50
00
00
ENDCHAR
STARTCHAR char36
ENCODING 36
SWIDTH 416 0
DWIDTH 5 0
BBX 5 12 0 -2
BITMAP
00
20
70
A8
A0
70
28
A8
70
20
00
00
ENDCHAR
STARTCHAR char37
ENCODING 37
SWIDTH 416 0
DWIDTH 5 0
BBX 5 12 0 -2
BITMAP
00
00
48
B0
50
20
20
50
68
90
00
00
ENDCHAR
STARTCHAR char38
ENCODING 38
SWIDTH 416 0
DWIDTH 5 0
BBX 5 12 0 -2
BITMAP
00
20
50
50
20
68
90
90
90
68
00
00
ENDCHAR
STARTCHAR char39
ENCODING 39
SWIDTH 416 0
DWIDTH 5 0
BBX 5 12 0 -2
BITMAP
00
20
20
20
00
00
00
00
00
00
00
00
ENDCHAR
STARTCHAR char40
ENCODING 40
SWIDTH 416 0
DWIDTH 5 0
BBX 5 12 0 -2
BITMAP
00
10
20
40
40
40
40
40
40
20
10
00
ENDCHAR
STARTCHAR char41
ENCODING 41
SWIDTH 416 0
DWIDTH 5 0
BBX 5 12 0 -2
BITMAP
00
40
20
10
10
10
10
10
10
20
40
00
ENDCHAR
STARTCHAR char42
ENCODING 42
SWIDTH 416 0
DWIDTH 5 0
BBX 5 12 0 -2
BITMAP
00
00
00
50
20
F8
20
50
00
00
00
00
ENDCHAR
STARTCHAR char43
ENCODING 43
SWIDTH 416 0
DWIDTH 5 0
BBX 5 12 0 -2
BITMAP
00
00
00
20
20
F8
20
20
00
00
00
00
ENDCHAR
STARTCHAR char44
ENCODING 44
SWIDTH 416 0
DWIDTH 5 0
BBX 5 12 0 -2
BITMAP
00
00
00
00
00
00
00
00
00
20
20
40
ENDCHAR
STARTCHAR char45
ENCODING 45
SWIDTH 416 0
DWIDTH 5 0
BBX 5 12 0 -2
BITMAP
00
00
00
00
00
00
F0
00
00
00
00
00
ENDCHAR
STARTCHAR char46
ENCODING 46
SWIDTH 416 0
DWIDTH 5 0
BBX 5 12 0 -2
BITMAP
00
00
00
00
00
00
00
00
20
20
00
00
ENDCHAR
STARTCHAR char47
ENCODING 47
SWIDTH 416 0
DWIDTH 5 0
BBX 5 12 0 -2
BITMAP
00
00
10
10
20
20
40
40
80
80
00
00
ENDCHAR
STARTCHAR char48
ENCODING 48
SWIDTH 416 0
DWIDTH 5 0
BBX 5 12 0 -2
BITMAP
00
60
90
90
90
B0
D0
90
90
60
00
00
ENDCHAR
STARTCHAR char49
ENCODING 49
SWIDTH 416 0
DWIDTH 5 0
BBX 5 12 0 -2
BITMAP
00
20
60
20
20
20
20
20
20
70
00
00
ENDCHAR
STARTCHAR char50
ENCODING 50
SWIDTH 416 0
DWIDTH 5 0
BBX 5 12 0 -2
BITMAP
00
60
90
90
10
20
40
80
80
F0
00
00
ENDCHAR
STARTCHAR char51
ENCODING 51
SWIDTH 416 0
DWIDTH 5 0
BBX 5 12 0 -2
BITMAP
00
60
90
10
20
10
10
10
90
60
00
00
ENDCHAR
STARTCHAR char52
ENCODING 52
SWIDTH 416 0
DWIDTH 5 0
BBX 5 12 0 -2
BITMAP
00
10
30
50
50
90
90
F0
10
10
00
00
ENDCHAR
STARTCHAR char53
ENCODING 53
SWIDTH 416 0
DWIDTH 5 0
BBX 5 12 0 -2
BITMAP
00
F0
80
80
E0
10
10
10
90
60
00
00
ENDCHAR
STARTCHAR char54
ENCODING 54
SWIDTH 416 0
DWIDTH 5 0
BBX 5 12 0 -2
BITMAP
00
60
90
80
E0
90
90
90
90
60
00
00
ENDCHAR
STARTCHAR char55
ENCODING 55
SWIDTH 416 0
DWIDTH 5 0
BBX 5 12 0 -2
BITMAP
00
F0
10
10
10
60
20
40
40
40
00
00
ENDCHAR
STARTCHAR char56
ENCODING 56
SWIDTH 416 0
DWIDTH 5 0
BBX 5 12 0 -2
BITMAP
00
60
90
90
60
90
90
90
90
60
00
00
ENDCHAR
STARTCHAR char57
ENCODING 57
SWIDTH 416 0
DWIDTH 5 0
BBX 5 12 0 -2
BITMAP
00
60
90
90
90
90
70
10
90
60
00
00
ENDCHAR
STARTCHAR char58
ENCODING 58
SWIDTH 416 0
DWIDTH 5 0
BBX 5 12 0 -2
BITMAP
00
00
00
00
20
20
00
00
20
20
00
00
ENDCHAR
STARTCHAR char59
ENCODING 59
SWIDTH 416 0
DWIDTH 5 0
BBX 5 12 0 -2
BITMAP
00
00
00
00
20
20
00
00
20
20
40
00
ENDCHAR
STARTCHAR char60
ENCODING 60
SWIDTH 416 0
DWIDTH 5 0
BBX 5 12 0 -2
BITMAP
00
00
00
10
20
40
80
40
20
10
00
00
ENDCHAR
STARTCHAR char61
ENCODING 61
SWIDTH 416 0
DWIDTH 5 0
BBX 5 12 0 -2
BITMAP
00
00
00
00
F0
00
00
F0
00
00
00
00
ENDCHAR
STARTCHAR char62
ENCODING 62
SWIDTH 416 0
DWIDTH 5 0
BBX 5 12 0 -2
BITMAP
00
00
00
80
40
20
10
20
40
80
00
00
ENDCHAR
STARTCHAR char63
ENCODING 63
SWIDTH 416 0
DWIDTH 5 0
BBX 5 12 0 -2
BITMAP
00
60
90
90
10
10
60
40
00
40
00
00
ENDCHAR
STARTCHAR char64
ENCODING 64
SWIDTH 416 0
DWIDTH 5 0
BBX 5 12 0 -2
BITMAP
00
70
90
90
B0
B0
B0
B0
80
70
00
00
ENDCHAR
STARTCHAR char65
ENCODING 65
SWIDTH 416 0
DWIDTH 5 0
BBX 5 12 0 -2
BITMAP
00
60
90
90
90
90
90
F0
90
90
00
00
ENDCHAR
STARTCHAR char66
ENCODING 66
SWIDTH 416 0
DWIDTH 5 0
BBX 5 12 0 -2
BITMAP
00
E0
90
90
E0
90
90
90
90
E0
00
00
ENDCHAR
STARTCHAR char67
ENCODING 67
SWIDTH 416 0
DWIDTH 5 0
BBX 5 12 0 -2
BITMAP
00
70
80
80
80
80
80
80
80
70
00
00
ENDCHAR
STARTCHAR char68
ENCODING 68
SWIDTH 416 0
DWIDTH 5 0
BBX 5 12 0 -2
BITMAP
00
E0
90
90
90
90
90
90
90
E0
00
00
ENDCHAR
STARTCHAR char69
ENCODING 69
SWIDTH 416 0
DWIDTH 5 0
BBX 5 12 0 -2
BITMAP
00
F0
80
80
80
80
80
E0
80
F0
00
00
ENDCHAR
STARTCHAR char70
ENCODING 70
SWIDTH 416 0
DWIDTH 5 0
BBX 5 12 0 -2
BITMAP
00
F0
80
80
80
80
80
E0
80
80
00
00
ENDCHAR
STARTCHAR char71
ENCODING 71
SWIDTH 416 0
DWIDTH 5 0
BBX 5 12 0 -2
BITMAP
00
70
80
80
80
80
80
B0
90
70
00
00
ENDCHAR
STARTCHAR char72
ENCODING 72
SWIDTH 416 0
DWIDTH 5 0
BBX 5 12 0 -2
BITMAP
00
90
90
90
90
90
90
F0
90
90
00
00
ENDCHAR
STARTCHAR char73
ENCODING 73
SWIDTH 416 0
DWIDTH 5 0
BBX 5 12 0 -2
BITMAP
00
70
20
20
20
20
20
20
20
70
00
00
ENDCHAR
STARTCHAR char74
ENCODING 74
SWIDTH 416 0
DWIDTH 5 0
BBX 5 12 0 -2
BITMAP
00
70
20
20
20
20
20
A0
A0
40
00
00
ENDCHAR
STARTCHAR char75
ENCODING 75
SWIDTH 416 0
DWIDTH 5 0
BBX 5 12 0 -2
BITMAP
00
90
90
90
A0
A0
C0
A0
90
90
00
00
ENDCHAR
STARTCHAR char76
ENCODING 76
SWIDTH 416 0
DWIDTH 5 0
BBX 5 12 0 -2
BITMAP
00
80
80
80
80
80
80
80
80
F0
00
00
ENDCHAR
STARTCHAR char77
ENCODING 77
SWIDTH 416 0
DWIDTH 5 0
BBX 5 12 0 -2
BITMAP
00
90
F0
B0
90
90
90
90
90
90
00
00
ENDCHAR
STARTCHAR char78
ENCODING 78
SWIDTH 416 0
DWIDTH 5 0
BBX 5 12 0 -2
BITMAP
00
90
90
90
90
D0
B0
90
90
90
00
00
ENDCHAR
STARTCHAR char79
ENCODING 79
SWIDTH 416 0
DWIDTH 5 0
BBX 5 12 0 -2
BITMAP
00
60
90
90
90
90
90
90
90
60
00
00
ENDCHAR
STARTCHAR char80
ENCODING 80
SWIDTH 416 0
DWIDTH 5 0
BBX 5 12 0 -2
BITMAP
00
E0
90
90
90
90
90
E0
80
80
00
00
ENDCHAR
STARTCHAR char81
ENCODING 81
SWIDTH 416 0
DWIDTH 5 0
BBX 5 12 0 -2
BITMAP
00
60
90
90
90
90
90
90
B0
70
00
00
ENDCHAR
STARTCHAR char82
ENCODING 82
SWIDTH 416 0
DWIDTH 5 0
BBX 5 12 0 -2
BITMAP
00
E0
90
90
90
90
90
E0
A0
90
00
00
ENDCHAR
STARTCHAR char83
ENCODING 83
SWIDTH 416 0
DWIDTH 5 0
BBX 5 12 0 -2
BITMAP
00
60
90
80
60
10
10
90
90
60
00
00
ENDCHAR
STARTCHAR char84
ENCODING 84
SWIDTH 416 0
DWIDTH 5 0
BBX 5 12 0 -2
BITMAP
00
F8
20
20
20
20
20
20
20
20
00
00
ENDCHAR
STARTCHAR char85
ENCODING 85
SWIDTH 416 0
DWIDTH 5 0
BBX 5 12 0 -2
BITMAP
00
90
90
90
90
90
90
90
90
60
00
00
ENDCHAR
STARTCHAR char86
ENCODING 86
SWIDTH 416 0
DWIDTH 5 0
BBX 5 12 0 -2
BITMAP
00
90
90
90
90
90
90
60
60
60
00
00
ENDCHAR
STARTCHAR char87
ENCODING 87
SWIDTH 416 0
DWIDTH 5 0
BBX 5 12 0 -2
BITMAP
00
90
90
90
90
90
90
B0
F0
90
00
00
ENDCHAR
STARTCHAR char88
ENCODING 88
SWIDTH 416 0
DWIDTH 5 0
BBX 5 12 0 -2
BITMAP
00
90
90
90
90
60
60
90
90
90
00
00
ENDCHAR
STARTCHAR char89
ENCODING 89
SWIDTH 416 0
DWIDTH 5 0
BBX 5 12 0 -2
BITMAP
00
90
90
90
90
90
60
40
40
40
00
00
ENDCHAR
STARTCHAR char90
ENCODING 90
SWIDTH 416 0
DWIDTH 5 0
BBX 5 12 0 -2
BITMAP
00
F0
10
10
20
40
80
80
80
F0
00
00
ENDCHAR
STARTCHAR char91
ENCODING 91
SWIDTH 416 0
DWIDTH 5 0
BBX 5 12 0 -2
BITMAP
00
70
40
40
40
40
40
40
40
70
00
00
ENDCHAR
STARTCHAR char92
ENCODING 92
SWIDTH 416 0
DWIDTH 5 0
BBX 5 12 0 -2
BITMAP
00
00
80
80
40
40
20
20
10
10
00
00
ENDCHAR
STARTCHAR char93
ENCODING 93
SWIDTH 416 0
DWIDTH 5 0
BBX 5 12 0 -2
BITMAP
00
70
10
10
10
10
10
10
10
70
00
00
ENDCHAR
STARTCHAR char94
ENCODING 94
SWIDTH 416 0
DWIDTH 5 0
BBX 5 12 0 -2
BITMAP
00
20
50
00
00
00
00
00
00
00
00
00
ENDCHAR
STARTCHAR char95
ENCODING 95
SWIDTH 416 0
DWIDTH 5 0
BBX 5 12 0 -2
BITMAP
00
00
00
00
00
00
00
00
00
00
F0
00
ENDCHAR
STARTCHAR char96
ENCODING 96
SWIDTH 416 0
DWIDTH 5 0
BBX 5 12 0 -2
BITMAP
00
20
10
00
00
00
00
00
00
00
00
00
ENDCHAR
STARTCHAR char97
ENCODING 97
SWIDTH 416 0
DWIDTH 5 0
BBX 5 12 0 -2
BITMAP
00
00
00
60
10
70
90
90
90
F0
00
00
ENDCHAR
STARTCHAR char98
ENCODING 98
SWIDTH 416 0
DWIDTH 5 0
BBX 5 12 0 -2
BITMAP
00
80
80
E0
90
90
90
90
90
E0
00
00
ENDCHAR
STARTCHAR char99
ENCODING 99
SWIDTH 416 0
DWIDTH 5 0
BBX 5 12 0 -2
BITMAP
00
00
00
70
80
80
80
80
80
70
00
00
ENDCHAR
STARTCHAR char100
ENCODING 100
SWIDTH 416 0
DWIDTH 5 0
BBX 5 12 0 -2
BITMAP
00
10
10
70
90
90
90
90
90
70
00
00
ENDCHAR
STARTCHAR char101
ENCODING 101
SWIDTH 416 0
DWIDTH 5 0
BBX 5 12 0 -2
BITMAP
00
00
00
60
90
90
90
F0
80
70
00
00
ENDCHAR
STARTCHAR char102
ENCODING 102
SWIDTH 416 0
DWIDTH 5 0
BBX 5 12 0 -2
BITMAP
00
30
40
40
40
40
40
F0
40
40
00
00
ENDCHAR
STARTCHAR char103
ENCODING 103
SWIDTH 416 0
DWIDTH 5 0
BBX 5 12 0 -2
BITMAP
00
00
00
70
90
90
90
90
90
70
10
60
ENDCHAR
STARTCHAR char104
ENCODING 104
SWIDTH 416 0
DWIDTH 5 0
BBX 5 12 0 -2
BITMAP
00
80
80
E0
90
90
90
90
90
90
00
00
ENDCHAR
STARTCHAR char105
ENCODING 105
SWIDTH 416 0
DWIDTH 5 0
BBX 5 12 0 -2
BITMAP
00
20
20
00
60
20
20
20
20
70
00
00
ENDCHAR
STARTCHAR char106
ENCODING 106
SWIDTH 416 0
DWIDTH 5 0
BBX 5 12 0 -2
BITMAP
00
10
10
00
10
10
10
10
10
90
90
60
ENDCHAR
STARTCHAR char107
ENCODING 107
SWIDTH 416 0
DWIDTH 5 0
BBX 5 12 0 -2
BITMAP
00
80
80
80
90
A0
C0
C0
A0
90
00
00
ENDCHAR
STARTCHAR char108
ENCODING 108
SWIDTH 416 0
DWIDTH 5 0
BBX 5 12 0 -2
BITMAP
00
60
20
20
20
20
20
20
20
70
00
00
ENDCHAR
STARTCHAR char109
ENCODING 109
SWIDTH 416 0
DWIDTH 5 0
BBX 5 12 0 -2
BITMAP
00
00
00
90
F0
B0
90
90
90
90
00
00
ENDCHAR
STARTCHAR char110
ENCODING 110
SWIDTH 416 0
DWIDTH 5 0
BBX 5 12 0 -2
BITMAP
00
00
00
E0
90
90
90
90
90
90
00
00
ENDCHAR
STARTCHAR char111
ENCODING 111
SWIDTH 416 0
DWIDTH 5 0
BBX 5 12 0 -2
BITMAP
00
00
00
60
90
90
90
90
90
60
00
00
ENDCHAR
STARTCHAR char112
ENCODING 112
SWIDTH 416 0
DWIDTH 5 0
BBX 5 12 0 -2
BITMAP
00
00
00
E0
90
90
90
90
90
E0
80
80
ENDCHAR
STARTCHAR char113
ENCODING 113
SWIDTH 416 0
DWIDTH 5 0
BBX 5 12 0 -2
BITMAP
00
00
00
70
90
90
90
90
90
70
10
10
ENDCHAR
STARTCHAR char114
ENCODING 114
SWIDTH 416 0
DWIDTH 5 0
BBX 5 12 0 -2
BITMAP
00
00
00
B0
C0
80
80
80
80
80
00
00
ENDCHAR
STARTCHAR char115
ENCODING 115
SWIDTH 416 0
DWIDTH 5 0
BBX 5 12 0 -2
BITMAP
00
00
00
70
80
60
10
10
90
60
00
00
ENDCHAR
STARTCHAR char116
ENCODING 116
SWIDTH 416 0
DWIDTH 5 0
BBX 5 12 0 -2
BITMAP
00
40
40
F0
40
40
40
40
40
30
00
00
ENDCHAR
STARTCHAR char117
ENCODING 117
SWIDTH 416 0
DWIDTH 5 0
BBX 5 12 0 -2
BITMAP
00
00
00
90
90
90
90
90
90
70
00
00
ENDCHAR
STARTCHAR char118
ENCODING 118
SWIDTH 416 0
DWIDTH 5 0
BBX 5 12 0 -2
BITMAP
00
00
00
90
90
90
90
90
60
60
00
00
ENDCHAR
STARTCHAR char119
ENCODING 119
SWIDTH 416 0
DWIDTH 5 0
BBX 5 12 0 -2
BITMAP
00
00
00
90
90
90
90
B0
F0
90
00
00
ENDCHAR
STARTCHAR char120
ENCODING 120
SWIDTH 416 0
DWIDTH 5 0
BBX 5 12 0 -2
BITMAP
00
00
00
90
90
90
60
90
90
90
00
00
ENDCHAR
STARTCHAR char121
ENCODING 121
SWIDTH 416 0
DWIDTH 5 0
BBX 5 12 0 -2
BITMAP
00
00
00
90
90
90
90
90
90
70
10
60
ENDCHAR
STARTCHAR char122
ENCODING 122
SWIDTH 416 0
DWIDTH 5 0
BBX 5 12 0 -2
BITMAP
00
00
00
F0
10
20
40
80
80
F0
00
00
ENDCHAR
STARTCHAR char123
ENCODING 123
SWIDTH 416 0
DWIDTH 5 0
BBX 5 12 0 -2
BITMAP
00
30
40
40
40
80
40
40
40
30
00
00
ENDCHAR
STARTCHAR char124
ENCODING 124
SWIDTH 416 0
DWIDTH 5 0
BBX 5 12 0 -2
BITMAP
00
20
20
20
20
20
20
20
20
20
00
00
ENDCHAR
STARTCHAR char125
ENCODING 125
SWIDTH 416 0
DWIDTH 5 0
BBX 5 12 0 -2
BITMAP
00
60
10
10
10
08
10
10
10
60
00
00
ENDCHAR
STARTCHAR char126
ENCODING 126
SWIDTH 416 0
DWIDTH 5 0
BBX 5 12 0 -2
BITMAP
00
48
A8
90
00
00
00
00
00
00
00
00
ENDCHAR
STARTCHAR char160
ENCODING 160
SWIDTH 416 0
DWIDTH 5 0
BBX 5 12 0 -2
BITMAP
00
00
00
00
00
00
00
00
00
00
00
00
ENDCHAR
STARTCHAR char161
ENCODING 161
SWIDTH 416 0
DWIDTH 5 0
BBX 5 12 0 -2
BITMAP
00
00
10
10
00
10
10
10
10
10
10
10
ENDCHAR
STARTCHAR char162
ENCODING 162
SWIDTH 416 0
DWIDTH 5 0
BBX 5 12 0 -2
BITMAP
00
00
00
10
10
7C
92
90
90
90
92
7C
ENDCHAR
STARTCHAR char163
ENCODING 163
SWIDTH 416 0
DWIDTH 5 0
BBX 5 12 0 -2
BITMAP
00
00
18
24
20
20
78
20
20
20
22
7E
ENDCHAR
STARTCHAR char164
ENCODING 164
SWIDTH 416 0
DWIDTH 5 0
BBX 5 12 0 -2
BITMAP
00
00
00
90
60
90
90
90
60
90
00
00
ENDCHAR
STARTCHAR char165
ENCODING 165
SWIDTH 416 0
DWIDTH 5 0
BBX 5 12 0 -2
BITMAP
00
00
88
88
50
20
70
20
70
20
00
00
ENDCHAR
STARTCHAR char166
ENCODING 166
SWIDTH 416 0
DWIDTH 5 0
BBX 5 12 0 -2
BITMAP
00
20
20
20
20
00
00
20
20
20
20
00
ENDCHAR
STARTCHAR char167
ENCODING 167
SWIDTH 416 0
DWIDTH 5 0
BBX 5 12 0 -2
BITMAP
00
60
90
40
A0
90
90
50
20
90
60
00
ENDCHAR
STARTCHAR char168
ENCODING 168
SWIDTH 416 0
DWIDTH 5 0
BBX 5 12 0 -2
BITMAP
00
50
50
00
00
00
00
00
00
00
00
00
ENDCHAR
STARTCHAR char169
ENCODING 169
SWIDTH 416 0
DWIDTH 5 0
BBX 5 12 0 -2
BITMAP
00
00
70
88
A8
C8
C8
A8
88
70
00
00
ENDCHAR
STARTCHAR char170
ENCODING 170
SWIDTH 416 0
DWIDTH 5 0
BBX 5 12 0 -2
BITMAP
00
60
10
70
90
70
00
F0
00
00
00
00
ENDCHAR
STARTCHAR char171
ENCODING 171
SWIDTH 416 0
DWIDTH 5 0
BBX 5 12 0 -2
BITMAP
00
00
00
00
00
28
50
A0
50
28
00
00
ENDCHAR
STARTCHAR char172
ENCODING 172
SWIDTH 416 0
DWIDTH 5 0
BBX 5 12 0 -2
BITMAP
00
00
00
00
00
78
08
08
00
00
00
00
ENDCHAR
STARTCHAR char173
ENCODING 173
SWIDTH 416 0
DWIDTH 5 0
BBX 5 12 0 -2
BITMAP
00
00
00
00
00
00
00
70
00
00
00
00
ENDCHAR
STARTCHAR char174
ENCODING 174
SWIDTH 416 0
DWIDTH 5 0
BBX 5 12 0 -2
BITMAP
00
00
70
88
E8
D8
E8
D8
88
70
00
00
ENDCHAR
STARTCHAR char175
ENCODING 175
SWIDTH 416 0
DWIDTH 5 0
BBX 5 12 0 -2
BITMAP
70
00
00
00
00
00
00
00
00
00
00
00
ENDCHAR
STARTCHAR char176
ENCODING 176
SWIDTH 416 0
DWIDTH 5 0
BBX 5 12 0 -2
BITMAP
00
20
50
20
00
00
00
00
00
00
00
00
ENDCHAR
STARTCHAR char177
ENCODING 177
SWIDTH 416 0
DWIDTH 5 0
BBX 5 12 0 -2
BITMAP
00
00
00
00
20
20
F8
20
20
00
F8
00
ENDCHAR
STARTCHAR char178
ENCODING 178
SWIDTH 416 0
DWIDTH 5 0
BBX 5 12 0 -2
BITMAP
00
20
50
10
20
70
00
00
00
00
00
00
ENDCHAR
STARTCHAR char179
ENCODING 179
SWIDTH 416 0
DWIDTH 5 0
BBX 5 12 0 -2
BITMAP
00
60
10
20
10
60
00
00
00
00
00
00
ENDCHAR
STARTCHAR char180
ENCODING 180
SWIDTH 416 0
DWIDTH 5 0
BBX 5 12 0 -2
BITMAP
10
20
00
00
00
00
00
00
00
00
00
00
ENDCHAR
STARTCHAR char181
ENCODING 181
SWIDTH 416 0
DWIDTH 5 0
BBX 5 12 0 -2
BITMAP
00
00
00
00
90
90
90
B0
D0
80
80
00
ENDCHAR
STARTCHAR char182
ENCODING 182
SWIDTH 416 0
DWIDTH 5 0
BBX 5 12 0 -2
BITMAP
00
00
78
A8
A8
A8
A8
68
28
28
28
00
ENDCHAR
STARTCHAR char183
ENCODING 183
SWIDTH 416 0
DWIDTH 5 0
BBX 5 12 0 -2
BITMAP
00
00
00
00
00
00
20
20
00
00
00
00
ENDCHAR
STARTCHAR char184
ENCODING 184
SWIDTH 416 0
DWIDTH 5 0
BBX 5 12 0 -2
BITMAP
00
00
00
00
00
00
00
00
10
10
20
00
ENDCHAR
STARTCHAR char185
ENCODING 185
SWIDTH 416 0
DWIDTH 5 0
BBX 5 12 0 -2
BITMAP
00
10
30
10
10
10
00
00
00
00
00
00
ENDCHAR
STARTCHAR char186
ENCODING 186
SWIDTH 416 0
DWIDTH 5 0
BBX 5 12 0 -2
BITMAP
00
30
48
48
30
00
78
00
00
00
00
00
ENDCHAR
STARTCHAR char187
ENCODING 187
SWIDTH 416 0
DWIDTH 5 0
BBX 5 12 0 -2
BITMAP
00
00
00
00
00
A0
50
28
50
A0
00
00
ENDCHAR
STARTCHAR char188
ENCODING 188
SWIDTH 416 0
DWIDTH 5 0
BBX 5 12 0 -2
BITMAP
00
80
88
90
20
50
B0
78
10
00
00
00
ENDCHAR
STARTCHAR char189
ENCODING 189
SWIDTH 416 0
DWIDTH 5 0
BBX 5 12 0 -2
BITMAP
00
80
88
90
20
50
A8
10
38
00
00
00
ENDCHAR
STARTCHAR char190
ENCODING 190
SWIDTH 416 0
DWIDTH 5 0
BBX 5 12 0 -2
BITMAP
C0
20
48
30
E0
50
B0
70
10
00
00
00
ENDCHAR
STARTCHAR char191
ENCODING 191
SWIDTH 416 0
DWIDTH 5 0
BBX 5 12 0 -2
BITMAP
00
20
20
00
20
20
40
80
80
88
70
00
ENDCHAR
STARTCHAR char65
ENCODING 192
SWIDTH 416 0
DWIDTH 5 0
BBX 5 12 0 -2
BITMAP
40
20
60
90
90
90
90
F0
90
90
00
00
ENDCHAR
STARTCHAR char65
ENCODING 193
SWIDTH 416 0
DWIDTH 5 0
BBX 5 12 0 -2
BITMAP
20
40
60
90
90
90
90
F0
90
90
00
00
ENDCHAR
STARTCHAR char65
ENCODING 194
SWIDTH 416 0
DWIDTH 5 0
BBX 5 12 0 -2
BITMAP
60
90
60
90
90
90
90
F0
90
90
00
00
ENDCHAR
STARTCHAR char65
ENCODING 195
SWIDTH 416 0
DWIDTH 5 0
BBX 5 12 0 -2
BITMAP
50
A0
60
90
90
90
90
F0
90
90
00
00
ENDCHAR
STARTCHAR char65
ENCODING 196
SWIDTH 416 0
DWIDTH 5 0
BBX 5 12 0 -2
BITMAP
90
90
60
90
90
90
90
F0
90
90
00
00
ENDCHAR
STARTCHAR char65
ENCODING 197
SWIDTH 416 0
DWIDTH 5 0
BBX 5 12 0 -2
BITMAP
60
90
60
90
90
90
90
F0
90
90
00
00
ENDCHAR
STARTCHAR char65
ENCODING 198
SWIDTH 416 0
DWIDTH 5 0
BBX 5 12 0 -2
BITMAP
00
78
A0
A0
A0
A0
F8
A0
A0
B8
00
00
ENDCHAR
STARTCHAR char67
ENCODING 199
SWIDTH 416 0
DWIDTH 5 0
BBX 5 12 0 -2
BITMAP
00
70
80
80
80
80
80
80
80
70
20
40
ENDCHAR
STARTCHAR char69
ENCODING 200
SWIDTH 416 0
DWIDTH 5 0
BBX 5 12 0 -2
BITMAP
40
20
F0
80
80
80
80
E0
80
F0
00
00
ENDCHAR
STARTCHAR char69
ENCODING 201
SWIDTH 416 0
DWIDTH 5 0
BBX 5 12 0 -2
BITMAP
20
40
F0
80
80
80
80
E0
80
F0
00
00
ENDCHAR
STARTCHAR char69
ENCODING 202
SWIDTH 416 0
DWIDTH 5 0
BBX 5 12 0 -2
BITMAP
60
90
F0
80
80
80
80
E0
80
F0
00
00
ENDCHAR
STARTCHAR char69
ENCODING 203
SWIDTH 416 0
DWIDTH 5 0
BBX 5 12 0 -2
BITMAP
90
00
F0
80
80
80
80
E0
80
F0
00
00
ENDCHAR
STARTCHAR char73
ENCODING 204
SWIDTH 416 0
DWIDTH 5 0
BBX 5 12 0 -2
BITMAP
40
20
70
20
20
20
20
20
20
70
00
00
ENDCHAR
STARTCHAR char73
ENCODING 205
SWIDTH 416 0
DWIDTH 5 0
BBX 5 12 0 -2
BITMAP
10
20
70
20
20
20
20
20
20
70
00
00
ENDCHAR
STARTCHAR char73
ENCODING 206
SWIDTH 416 0
DWIDTH 5 0
BBX 5 12 0 -2
BITMAP
20
50
70
20
20
20
20
20
20
70
00
00
ENDCHAR
STARTCHAR char73
ENCODING 207
SWIDTH 416 0
DWIDTH 5 0
BBX 5 12 0 -2
BITMAP
50
00
70
20
20
20
20
20
20
70
00
00
ENDCHAR
STARTCHAR char68
ENCODING 208
SWIDTH 416 0
DWIDTH 5 0
BBX 5 12 0 -2
BITMAP
00
E0
90
90
90
D0
90
90
90
E0
00
00
ENDCHAR
STARTCHAR char78
ENCODING 209
SWIDTH 416 0
DWIDTH 5 0
BBX 5 12 0 -2
BITMAP
50
A0
90
90
90
D0
B0
90
90
90
00
00
ENDCHAR
STARTCHAR char79
ENCODING 210
SWIDTH 416 0
DWIDTH 5 0
BBX 5 12 0 -2
BITMAP
40
20
60
90
90
90
90
90
90
60
00
00
ENDCHAR
STARTCHAR char79
ENCODING 211
SWIDTH 416 0
DWIDTH 5 0
BBX 5 12 0 -2
BITMAP
20
40
60
90
90
90
90
90
90
60
00
00
ENDCHAR
STARTCHAR char79
ENCODING 212
SWIDTH 416 0
DWIDTH 5 0
BBX 5 12 0 -2
BITMAP
60
90
60
90
90
90
90
90
90
60
00
00
ENDCHAR
STARTCHAR char79
ENCODING 213
SWIDTH 416 0
DWIDTH 5 0
BBX 5 12 0 -2
BITMAP
50
A0
60
90
90
90
90
90
90
60
00
00
ENDCHAR
STARTCHAR char79
ENCODING 214
SWIDTH 416 0
DWIDTH 5 0
BBX 5 12 0 -2
BITMAP
90
00
60
90
90
90
90
90
90
60
00
00
ENDCHAR
STARTCHAR char215
ENCODING 215
SWIDTH 416 0
DWIDTH 5 0
BBX 5 12 0 -2
BITMAP
00
00
00
00
88
50
20
50
88
00
00
00
ENDCHAR
STARTCHAR char79
ENCODING 216
SWIDTH 416 0
DWIDTH 5 0
BBX 5 12 0 -2
BITMAP
00
00
28
50
50
70
70
50
50
A0
00
00
ENDCHAR
STARTCHAR char85
ENCODING 217
SWIDTH 416 0
DWIDTH 5 0
BBX 5 12 0 -2
BITMAP
40
20
90
90
90
90
90
90
90
60
00
00
ENDCHAR
STARTCHAR char85
ENCODING 218
SWIDTH 416 0
DWIDTH 5 0
BBX 5 12 0 -2
BITMAP
20
40
90
90
90
90
90
90
90
60
00
00
ENDCHAR
STARTCHAR char85
ENCODING 219
SWIDTH 416 0
DWIDTH 5 0
BBX 5 12 0 -2
BITMAP
60
90
00
90
90
90
90
90
90
60
00
00
ENDCHAR
STARTCHAR char85
ENCODING 220
SWIDTH 416 0
DWIDTH 5 0
BBX 5 12 0 -2
BITMAP
90
00
90
90
90
90
90
90
90
60
00
00
ENDCHAR
STARTCHAR char89
ENCODING 221
SWIDTH 416 0
DWIDTH 5 0
BBX 5 12 0 -2
BITMAP
20
40
90
90
90
90
60
40
40
40
00
00
ENDCHAR
STARTCHAR char222
ENCODING 222
SWIDTH 416 0
DWIDTH 5 0
BBX 5 12 0 -2
BITMAP
00
80
80
E0
90
90
90
90
E0
80
80
00
ENDCHAR
STARTCHAR char223
ENCODING 223
SWIDTH 416 0
DWIDTH 5 0
BBX 5 12 0 -2
BITMAP
00
70
88
88
88
F0
88
88
88
C8
B0
00
ENDCHAR
STARTCHAR char97
ENCODING 224
SWIDTH 416 0
DWIDTH 5 0
BBX 5 12 0 -2
BITMAP
00
40
20
60
10
70
90
90
90
F0
00
00
ENDCHAR
STARTCHAR char97
ENCODING 225
SWIDTH 416 0
DWIDTH 5 0
BBX 5 12 0 -2
BITMAP
00
20
40
60
10
70
90
90
90
F0
00
00
ENDCHAR
STARTCHAR char97
ENCODING 226
SWIDTH 416 0
DWIDTH 5 0
BBX 5 12 0 -2
BITMAP
00
60
90
60
10
70
90
90
90
F0
00
00
ENDCHAR
STARTCHAR char97
ENCODING 227
SWIDTH 416 0
DWIDTH 5 0
BBX 5 12 0 -2
BITMAP
00
50
A0
60
10
70
90
90
90
F0
00
00
ENDCHAR
STARTCHAR char97
ENCODING 228
SWIDTH 416 0
DWIDTH 5 0
BBX 5 12 0 -2
BITMAP
50
50
00
60
10
70
90
90
90
F0
00
00
ENDCHAR
STARTCHAR char97
ENCODING 229
SWIDTH 416 0
DWIDTH 5 0
BBX 5 12 0 -2
BITMAP
00
60
90
60
10
70
90
90
90
F0
00
00
ENDCHAR
STARTCHAR char230
ENCODING 230
SWIDTH 416 0
DWIDTH 5 0
BBX 5 12 0 -2
BITMAP
00
00
00
50
28
68
B8
A0
A0
58
00
00
ENDCHAR
STARTCHAR char99
ENCODING 231
SWIDTH 416 0
DWIDTH 5 0
BBX 5 12 0 -2
BITMAP
00
00
00
70
80
80
80
80
80
70
20
40
ENDCHAR
STARTCHAR char101
ENCODING 232
SWIDTH 416 0
DWIDTH 5 0
BBX 5 12 0 -2
BITMAP
00
40
20
60
90
90
90
F0
80
70
00
00
ENDCHAR
STARTCHAR char101
ENCODING 233
SWIDTH 416 0
DWIDTH 5 0
BBX 5 12 0 -2
BITMAP
00
20
40
60
90
90
90
F0
80
70
00
00
ENDCHAR
STARTCHAR char101
ENCODING 234
SWIDTH 416 0
DWIDTH 5 0
BBX 5 12 0 -2
BITMAP
00
60
90
60
90
90
90
F0
80
70
00
00
ENDCHAR
STARTCHAR char101
ENCODING 235
SWIDTH 416 0
DWIDTH 5 0
BBX 5 12 0 -2
BITMAP
00
90
90
60
90
90
90
F0
80
70
00
00
ENDCHAR
STARTCHAR char105
ENCODING 236
SWIDTH 416 0
DWIDTH 5 0
BBX 5 12 0 -2
BITMAP
00
40
20
00
20
20
20
20
20
70
00
00
ENDCHAR
STARTCHAR char105
ENCODING 237
SWIDTH 416 0
DWIDTH 5 0
BBX 5 12 0 -2
BITMAP
00
10
20
00
20
20
20
20
20
70
00
00
ENDCHAR
STARTCHAR char105
ENCODING 238
SWIDTH 416 0
DWIDTH 5 0
BBX 5 12 0 -2
BITMAP
00
20
50
00
20
20
20
20
20
70
00
00
ENDCHAR
STARTCHAR char105
ENCODING 239
SWIDTH 416 0
DWIDTH 5 0
BBX 5 12 0 -2
BITMAP
00
50
50
00
20
20
20
20
20
70
00
00
ENDCHAR
STARTCHAR char111
ENCODING 240
SWIDTH 416 0
DWIDTH 5 0
BBX 5 12 0 -2
BITMAP
A0
40
A0
60
90
90
90
90
90
60
00
00
ENDCHAR
STARTCHAR char110
ENCODING 241
SWIDTH 416 0
DWIDTH 5 0
BBX 5 12 0 -2
BITMAP
00
50
A0
E0
90
90
90
90
90
90
00
00
ENDCHAR
STARTCHAR char111
ENCODING 242
SWIDTH 416 0
DWIDTH 5 0
BBX 5 12 0 -2
BITMAP
00
40
20
60
90
90
90
90
90
60
00
00
ENDCHAR
STARTCHAR char111
ENCODING 243
SWIDTH 416 0
DWIDTH 5 0
BBX 5 12 0 -2
BITMAP
00
20
40
60
90
90
90
90
90
60
00
00
ENDCHAR
STARTCHAR char111
ENCODING 244
SWIDTH 416 0
DWIDTH 5 0
BBX 5 12 0 -2
BITMAP
00
60
90
60
90
90
90
90
90
60
00
00
ENDCHAR
STARTCHAR char111
ENCODING 245
SWIDTH 416 0
DWIDTH 5 0
BBX 5 12 0 -2
BITMAP
00
50
A0
60
90
90
90
90
90
60
00
00
ENDCHAR
STARTCHAR char111
ENCODING 246
SWIDTH 416 0
DWIDTH 5 0
BBX 5 12 0 -2
BITMAP
90
90
00
60
90
90
90
90
90
60
00
00
ENDCHAR
STARTCHAR char247
ENCODING 247
SWIDTH 416 0
DWIDTH 5 0
BBX 5 12 0 -2
BITMAP
00
00
00
20
20
00
F8
00
20
20
00
00
ENDCHAR
STARTCHAR char111
ENCODING 248
SWIDTH 416 0
DWIDTH 5 0
BBX 5 12 0 -2
BITMAP
00
00
00
28
50
50
70
50
50
A0
00
00
ENDCHAR
STARTCHAR char117
ENCODING 249
SWIDTH 416 0
DWIDTH 5 0
BBX 5 12 0 -2
BITMAP
00
40
20
90
90
90
90
90
90
70
00
00
ENDCHAR
STARTCHAR char117
ENCODING 250
SWIDTH 416 0
DWIDTH 5 0
BBX 5 12 0 -2
BITMAP
00
20
40
90
90
90
90
90
90
70
00
00
ENDCHAR
STARTCHAR char117
ENCODING 251
SWIDTH 416 0
DWIDTH 5 0
BBX 5 12 0 -2
BITMAP
60
90
00
90
90
90
90
90
90
70
00
00
ENDCHAR
STARTCHAR char117
ENCODING 252
SWIDTH 416 0
DWIDTH 5 0
BBX 5 12 0 -2
BITMAP
90
90
00
90
90
90
90
90
90
70
00
00
ENDCHAR
STARTCHAR char121
ENCODING 253
SWIDTH 416 0
DWIDTH 5 0
BBX 5 12 0 -2
BITMAP
00
20
40
90
90
90
90
90
70
10
10
60
ENDCHAR
STARTCHAR char254
ENCODING 254
SWIDTH 416 0
DWIDTH 5 0
BBX 5 12 0 -2
BITMAP
00
00
80
80
80
E0
90
90
E0
80
80
80
ENDCHAR
STARTCHAR char121
ENCODING 255
SWIDTH 416 0
DWIDTH 5 0
BBX 5 12 0 -2
BITMAP
90
90
00
90
90
90
90
90
70
10
10
60
ENDCHAR
STARTCHAR char69
ENCODING 338
SWIDTH 416 0
DWIDTH 5 0
BBX 5 12 0 -2
BITMAP
00
58
A0
A0
A0
A0
B0
A0
A0
58
00
00
ENDCHAR
STARTCHAR char101
ENCODING 339
SWIDTH 416 0
DWIDTH 5 0
BBX 5 12 0 -2
BITMAP
00
00
00
70
A8
A8
A8
B8
A0
58
00
00
ENDCHAR
STARTCHAR char658
ENCODING 658
SWIDTH 416 0
DWIDTH 5 0
BBX 5 12 0 -2
BITMAP
00
00
00
00
00
7E
02
04
08
1C
02
02
ENDCHAR
STARTCHAR char699
ENCODING 699
SWIDTH 416 0
DWIDTH 5 0
BBX 5 12 0 -2
BITMAP
08
10
10
00
00
00
00
00
00
00
00
00
ENDCHAR
STARTCHAR char700
ENCODING 700
SWIDTH 416 0
DWIDTH 5 0
BBX 5 12 0 -2
BITMAP
08
08
10
00
00
00
00
00
00
00
00
00
ENDCHAR
STARTCHAR char701
ENCODING 701
SWIDTH 416 0
DWIDTH 5 0
BBX 5 12 0 -2
BITMAP
10
10
08
00
00
00
00
00
00
00
00
00
ENDCHAR
STARTCHAR char710
ENCODING 710
SWIDTH 416 0
DWIDTH 5 0
BBX 5 12 0 -2
BITMAP
18
24
00
00
00
00
00
00
00
00
00
00
ENDCHAR
STARTCHAR char711
ENCODING 711
SWIDTH 416 0
DWIDTH 5 0
BBX 5 12 0 -2
BITMAP
24
18
00
00
00
00
00
00
00
00
00
00
ENDCHAR
STARTCHAR char728
ENCODING 728
SWIDTH 416 0
DWIDTH 5 0
BBX 5 12 0 -2
BITMAP
24
18
00
00
00
00
00
00
00
00
00
00
ENDCHAR
STARTCHAR char729
ENCODING 729
SWIDTH 416 0
DWIDTH 5 0
BBX 5 12 0 -2
BITMAP
10
10
00
00
00
00
00
00
00
00
00
00
ENDCHAR
STARTCHAR char731
ENCODING 731
SWIDTH 416 0
DWIDTH 5 0
BBX 5 12 0 -2
BITMAP
00
00
00
00
00
00
00
00
00
00
00
02
ENDCHAR
STARTCHAR char732
ENCODING 732
SWIDTH 416 0
DWIDTH 5 0
BBX 5 12 0 -2
BITMAP
32
4C
00
00
00
00
00
00
00
00
00
00
ENDCHAR
STARTCHAR char733
ENCODING 733
SWIDTH 416 0
DWIDTH 5 0
BBX 5 12 0 -2
BITMAP
12
24
00
00
00
00
00
00
00
00
00
00
ENDCHAR
STARTCHAR char768
ENCODING 768
SWIDTH 416 0
DWIDTH 5 0
BBX 5 12 0 -2
BITMAP
10
08
00
00
00
00
00
00
00
00
00
00
ENDCHAR
STARTCHAR char769
ENCODING 769
SWIDTH 416 0
DWIDTH 5 0
BBX 5 12 0 -2
BITMAP
08
10
00
00
00
00
00
00
00
00
00
00
ENDCHAR
STARTCHAR char900
ENCODING 900
SWIDTH 416 0
DWIDTH 5 0
BBX 5 12 0 -2
BITMAP
40
80
00
00
00
00
00
00
00
00
00
00
ENDCHAR
STARTCHAR char901
ENCODING 901
SWIDTH 416 0
DWIDTH 5 0
BBX 5 12 0 -2
BITMAP
08
10
00
24
00
00
00
00
00
00
00
00
ENDCHAR
STARTCHAR char902
ENCODING 902
SWIDTH 416 0
DWIDTH 5 0
BBX 5 12 0 -2
BITMAP
40
80
3C
42
42
42
42
7E
42
42
42
42
ENDCHAR
STARTCHAR char903
ENCODING 903
SWIDTH 416 0
DWIDTH 5 0
BBX 5 12 0 -2
BITMAP
00
00
00
00
00
10
10
00
00
00
00
00
ENDCHAR
STARTCHAR char904
ENCODING 904
SWIDTH 416 0
DWIDTH 5 0
BBX 5 12 0 -2
BITMAP
40
80
7E
40
40
40
78
40
40
40
40
7E
ENDCHAR
STARTCHAR char905
ENCODING 905
SWIDTH 416 0
DWIDTH 5 0
BBX 5 12 0 -2
BITMAP
40
80
42
42
42
42
7E
42
42
42
42
42
ENDCHAR
STARTCHAR char906
ENCODING 906
SWIDTH 416 0
DWIDTH 5 0
BBX 5 12 0 -2
BITMAP
40
80
38
10
10
10
10
10
10
10
10
38
ENDCHAR
STARTCHAR char908
ENCODING 908
SWIDTH 416 0
DWIDTH 5 0
BBX 5 12 0 -2
BITMAP
40
80
3C
42
42
42
42
42
42
42
42
3C
ENDCHAR
STARTCHAR char910
ENCODING 910
SWIDTH 416 0
DWIDTH 5 0
BBX 5 12 0 -2
BITMAP
40
80
00
82
82
44
44
28
10
10
10
10
ENDCHAR
STARTCHAR char911
ENCODING 911
SWIDTH 416 0
DWIDTH 5 0
BBX 5 12 0 -2
BITMAP
40
80
3C
42
42
42
42
42
42
24
24
66
ENDCHAR
STARTCHAR char912
ENCODING 912
SWIDTH 416 0
DWIDTH 5 0
BBX 5 12 0 -2
BITMAP
08
10
48
48
00
30
10
10
10
10
10
0C
ENDCHAR
STARTCHAR char913
ENCODING 913
SWIDTH 416 0
DWIDTH 5 0
BBX 5 12 0 -2
BITMAP
00
00
3C
42
42
42
42
7E
42
42
42
42
ENDCHAR
STARTCHAR char914
ENCODING 914
SWIDTH 416 0
DWIDTH 5 0
BBX 5 12 0 -2
BITMAP
00
00
7C
42
42
42
7C
42
42
42
42
7C
ENDCHAR
STARTCHAR char915
ENCODING 915
SWIDTH 416 0
DWIDTH 5 0
BBX 5 12 0 -2
BITMAP
00
00
7E
40
40
40
40
40
40
40
40
40
ENDCHAR
STARTCHAR char916
ENCODING 916
SWIDTH 416 0
DWIDTH 5 0
BBX 5 12 0 -2
BITMAP
00
00
10
10
28
28
44
44
44
82
82
FE
ENDCHAR
STARTCHAR char917
ENCODING 917
SWIDTH 416 0
DWIDTH 5 0
BBX 5 12 0 -2
BITMAP
00
00
7E
40
40
40
78
40
40
40
40
7E
ENDCHAR
STARTCHAR char918
ENCODING 918
SWIDTH 416 0
DWIDTH 5 0
BBX 5 12 0 -2
BITMAP
00
00
7E
02
02
04
08
10
20
40
40
7E
ENDCHAR
STARTCHAR char919
ENCODING 919
SWIDTH 416 0
DWIDTH 5 0
BBX 5 12 0 -2
BITMAP
00
00
42
42
42
42
7E
42
42
42
42
42
ENDCHAR
STARTCHAR char920
ENCODING 920
SWIDTH 416 0
DWIDTH 5 0
BBX 5 12 0 -2
BITMAP
00
00
3C
42
42
42
5A
42
42
42
42
3C
ENDCHAR
STARTCHAR char921
ENCODING 921
SWIDTH 416 0
DWIDTH 5 0
BBX 5 12 0 -2
BITMAP
00
00
38
10
10
10
10
10
10
10
10
38
ENDCHAR
STARTCHAR char922
ENCODING 922
SWIDTH 416 0
DWIDTH 5 0
BBX 5 12 0 -2
BITMAP
00
00
42
44
48
50
60
60
50
48
44
42
ENDCHAR
STARTCHAR char923
ENCODING 923
SWIDTH 416 0
DWIDTH 5 0
BBX 5 12 0 -2
BITMAP
00
00
10
10
28
28
44
44
44
82
82
82
ENDCHAR
STARTCHAR char924
ENCODING 924
SWIDTH 416 0
DWIDTH 5 0
BBX 5 12 0 -2
BITMAP
00
00
82
C6
AA
92
82
82
82
82
82
82
ENDCHAR
STARTCHAR char925
ENCODING 925
SWIDTH 416 0
DWIDTH 5 0
BBX 5 12 0 -2
BITMAP
00
00
42
42
42
62
52
4A
46
42
42
42
ENDCHAR
STARTCHAR char926
ENCODING 926
SWIDTH 416 0
DWIDTH 5 0
BBX 5 12 0 -2
BITMAP
00
00
7E
00
00
00
3C
00
00
00
00
7E
ENDCHAR
STARTCHAR char927
ENCODING 927
SWIDTH 416 0
DWIDTH 5 0
BBX 5 12 0 -2
BITMAP
00
00
3C
42
42
42
42
42
42
42
42
3C
ENDCHAR
STARTCHAR char928
ENCODING 928
SWIDTH 416 0
DWIDTH 5 0
BBX 5 12 0 -2
BITMAP
00
00
7E
42
42
42
42
42
42
42
42
42
ENDCHAR
STARTCHAR char929
ENCODING 929
SWIDTH 416 0
DWIDTH 5 0
BBX 5 12 0 -2
BITMAP
00
00
7C
42
42
42
42
7C
40
40
40
40
ENDCHAR
STARTCHAR char931
ENCODING 931
SWIDTH 416 0
DWIDTH 5 0
BBX 5 12 0 -2
BITMAP
00
00
7E
40
20
10
08
08
10
20
40
7E
ENDCHAR
STARTCHAR char932
ENCODING 932
SWIDTH 416 0
DWIDTH 5 0
BBX 5 12 0 -2
BITMAP
00
00
FE
10
10
10
10
10
10
10
10
10
ENDCHAR
STARTCHAR char933
ENCODING 933
SWIDTH 416 0
DWIDTH 5 0
BBX 5 12 0 -2
BITMAP
00
00
82
82
44
44
28
10
10
10
10
10
ENDCHAR
STARTCHAR char934
ENCODING 934
SWIDTH 416 0
DWIDTH 5 0
BBX 5 12 0 -2
BITMAP
00
00
10
7C
92
92
92
92
92
92
7C
10
ENDCHAR
STARTCHAR char935
ENCODING 935
SWIDTH 416 0
DWIDTH 5 0
BBX 5 12 0 -2
BITMAP
00
00
42
42
24
24
18
18
24
24
42
42
ENDCHAR
STARTCHAR char936
ENCODING 936
SWIDTH 416 0
DWIDTH 5 0
BBX 5 12 0 -2
BITMAP
00
00
92
92
92
92
92
92
92
7C
10
10
ENDCHAR
STARTCHAR char937
ENCODING 937
SWIDTH 416 0
DWIDTH 5 0
BBX 5 12 0 -2
BITMAP
00
60
90
90
90
90
90
90
90
60
60
F0
ENDCHAR
STARTCHAR char938
ENCODING 938
SWIDTH 416 0
DWIDTH 5 0
BBX 5 12 0 -2
BITMAP
44
44
00
38
10
10
10
10
10
10
10
38
ENDCHAR
STARTCHAR char939
ENCODING 939
SWIDTH 416 0
DWIDTH 5 0
BBX 5 12 0 -2
BITMAP
44
44
00
82
82
44
44
28
10
10
10
10
ENDCHAR
STARTCHAR char940
ENCODING 940
SWIDTH 416 0
DWIDTH 5 0
BBX 5 12 0 -2
BITMAP
00
00
08
10
00
3A
46
44
44
44
46
3A
ENDCHAR
STARTCHAR char941
ENCODING 941
SWIDTH 416 0
DWIDTH 5 0
BBX 5 12 0 -2
BITMAP
00
00
08
10
00
3C
42
40
38
40
42
3C
ENDCHAR
STARTCHAR char942
ENCODING 942
SWIDTH 416 0
DWIDTH 5 0
BBX 5 12 0 -2
BITMAP
00
00
08
10
00
7C
42
42
42
42
42
42
ENDCHAR
STARTCHAR char943
ENCODING 943
SWIDTH 416 0
DWIDTH 5 0
BBX 5 12 0 -2
BITMAP
00
00
08
10
00
30
10
10
10
10
10
0C
ENDCHAR
STARTCHAR char944
ENCODING 944
SWIDTH 416 0
DWIDTH 5 0
BBX 5 12 0 -2
BITMAP
08
10
00
24
00
42
42
42
42
42
42
3C
ENDCHAR
STARTCHAR char945
ENCODING 945
SWIDTH 416 0
DWIDTH 5 0
BBX 5 12 0 -2
BITMAP
00
00
00
00
00
3A
46
44
44
44
46
3A
ENDCHAR
STARTCHAR char946
ENCODING 946
SWIDTH 416 0
DWIDTH 5 0
BBX 5 12 0 -2
BITMAP
00
00
38
44
44
48
7C
42
42
42
42
7C
ENDCHAR
STARTCHAR char947
ENCODING 947
SWIDTH 416 0
DWIDTH 5 0
BBX 5 12 0 -2
BITMAP
00
00
00
00
00
82
82
44
44
28
28
10
ENDCHAR
STARTCHAR char948
ENCODING 948
SWIDTH 416 0
DWIDTH 5 0
BBX 5 12 0 -2
BITMAP
00
00
3E
10
08
3C
42
42
42
42
42
3C
ENDCHAR
STARTCHAR char949
ENCODING 949
SWIDTH 416 0
DWIDTH 5 0
BBX 5 12 0 -2
BITMAP
00
00
00
00
00
3C
42
40
38
40
42
3C
ENDCHAR
STARTCHAR char950
ENCODING 950
SWIDTH 416 0
DWIDTH 5 0
BBX 5 12 0 -2
BITMAP
00
00
7E
04
08
10
20
40
40
40
40
3C
ENDCHAR
STARTCHAR char951
ENCODING 951
SWIDTH 416 0
DWIDTH 5 0
BBX 5 12 0 -2
BITMAP
00
00
00
00
00
7C
42
42
42
42
42
42
ENDCHAR
STARTCHAR char952
ENCODING 952
SWIDTH 416 0
DWIDTH 5 0
BBX 5 12 0 -2
BITMAP
00
00
38
44
44
44
7C
44
44
44
44
38
ENDCHAR
STARTCHAR char953
ENCODING 953
SWIDTH 416 0
DWIDTH 5 0
BBX 5 12 0 -2
BITMAP
00
00
00
00
00
30
10
10
10
10
10
0C
ENDCHAR
STARTCHAR char954
ENCODING 954
SWIDTH 416 0
DWIDTH 5 0
BBX 5 12 0 -2
BITMAP
00
00
00
00
00
42
44
48
70
48
44
42
ENDCHAR
STARTCHAR char955
ENCODING 955
SWIDTH 416 0
DWIDTH 5 0
BBX 5 12 0 -2
BITMAP
00
00
20
20
10
10
28
28
44
44
82
82
ENDCHAR
STARTCHAR char956
ENCODING 956
SWIDTH 416 0
DWIDTH 5 0
BBX 5 12 0 -2
BITMAP
00
00
00
00
00
42
42
42
42
42
46
7A
ENDCHAR
STARTCHAR char957
ENCODING 957
SWIDTH 416 0
DWIDTH 5 0
BBX 5 12 0 -2
BITMAP
00
00
00
00
00
42
42
42
24
24
18
18
ENDCHAR
STARTCHAR char958
ENCODING 958
SWIDTH 416 0
DWIDTH 5 0
BBX 5 12 0 -2
BITMAP
00
00
3E
40
40
40
3C
40
40
40
40
3C
ENDCHAR
STARTCHAR char959
ENCODING 959
SWIDTH 416 0
DWIDTH 5 0
BBX 5 12 0 -2
BITMAP
00
00
00
00
00
3C
42
42
42
42
42
3C
ENDCHAR
STARTCHAR char960
ENCODING 960
SWIDTH 416 0
DWIDTH 5 0
BBX 5 12 0 -2
BITMAP
00
00
00
00
00
7E
42
42
42
42
42
42
ENDCHAR
STARTCHAR char961
ENCODING 961
SWIDTH 416 0
DWIDTH 5 0
BBX 5 12 0 -2
BITMAP
00
00
00
00
00
3C
42
42
42
42
42
7C
ENDCHAR
STARTCHAR char962
ENCODING 962
SWIDTH 416 0
DWIDTH 5 0
BBX 5 12 0 -2
BITMAP
00
00
00
00
00
3C
42
40
40
40
40
3C
ENDCHAR
STARTCHAR char963
ENCODING 963
SWIDTH 416 0
DWIDTH 5 0
BBX 5 12 0 -2
BITMAP
00
00
00
00
00
3E
44
44
44
44
44
38
ENDCHAR
STARTCHAR char964
ENCODING 964
SWIDTH 416 0
DWIDTH 5 0
BBX 5 12 0 -2
BITMAP
00
00
00
00
00
FE
10
10
10
10
10
0C
ENDCHAR
STARTCHAR char965
ENCODING 965
SWIDTH 416 0
DWIDTH 5 0
BBX 5 12 0 -2
BITMAP
00
00
00
00
00
42
42
42
42
42
42
3C
ENDCHAR
STARTCHAR char966
ENCODING 966
SWIDTH 416 0
DWIDTH 5 0
BBX 5 12 0 -2
BITMAP
00
00
00
00
00
4C
92
92
92
92
92
7C
ENDCHAR
STARTCHAR char967
ENCODING 967
SWIDTH 416 0
DWIDTH 5 0
BBX 5 12 0 -2
BITMAP
00
00
00
00
00
42
42
24
24
18
24
24
ENDCHAR
STARTCHAR char968
ENCODING 968
SWIDTH 416 0
DWIDTH 5 0
BBX 5 12 0 -2
BITMAP
00
00
00
00
00
92
92
92
92
92
92
7C
ENDCHAR
STARTCHAR char969
ENCODING 969
SWIDTH 416 0
DWIDTH 5 0
BBX 5 12 0 -2
BITMAP
00
00
00
00
00
44
82
92
92
92
92
6C
ENDCHAR
STARTCHAR char970
ENCODING 970
SWIDTH 416 0
DWIDTH 5 0
BBX 5 12 0 -2
BITMAP
00
00
48
48
00
30
10
10
10
10
10
0C
ENDCHAR
STARTCHAR char971
ENCODING 971
SWIDTH 416 0
DWIDTH 5 0
BBX 5 12 0 -2
BITMAP
00
00
24
24
00
42
42
42
42
42
42
3C
ENDCHAR
STARTCHAR char972
ENCODING 972
SWIDTH 416 0
DWIDTH 5 0
BBX 5 12 0 -2
BITMAP
00
00
08
10
00
3C
42
42
42
42
42
3C
ENDCHAR
STARTCHAR char973
ENCODING 973
SWIDTH 416 0
DWIDTH 5 0
BBX 5 12 0 -2
BITMAP
00
00
08
10
00
42
42
42
42
42
42
3C
ENDCHAR
STARTCHAR char974
ENCODING 974
SWIDTH 416 0
DWIDTH 5 0
BBX 5 12 0 -2
BITMAP
00
00
08
10
00
44
82
92
92
92
92
6C
ENDCHAR
STARTCHAR char1024
ENCODING 1024
SWIDTH 416 0
DWIDTH 5 0
BBX 5 12 0 -2
BITMAP
10
08
00
7E
40
40
40
78
40
40
40
7E
ENDCHAR
STARTCHAR char1025
ENCODING 1025
SWIDTH 416 0
DWIDTH 5 0
BBX 5 12 0 -2
BITMAP
24
24
00
7E
40
40
40
78
40
40
40
7E
ENDCHAR
STARTCHAR char1026
ENCODING 1026
SWIDTH 416 0
DWIDTH 5 0
BBX 5 12 0 -2
BITMAP
00
00
F8
20
20
3C
22
22
22
22
22
22
ENDCHAR
STARTCHAR char1027
ENCODING 1027
SWIDTH 416 0
DWIDTH 5 0
BBX 5 12 0 -2
BITMAP
08
10
00
7E
40
40
40
40
40
40
40
40
ENDCHAR
STARTCHAR char1028
ENCODING 1028
SWIDTH 416 0
DWIDTH 5 0
BBX 5 12 0 -2
BITMAP
00
00
3C
42
40
40
78
40
40
40
42
3C
ENDCHAR
STARTCHAR char1029
ENCODING 1029
SWIDTH 416 0
DWIDTH 5 0
BBX 5 12 0 -2
BITMAP
00
00
3C
42
40
40
3C
02
02
42
42
3C
ENDCHAR
STARTCHAR char1030
ENCODING 1030
SWIDTH 416 0
DWIDTH 5 0
BBX 5 12 0 -2
BITMAP
00
00
38
10
10
10
10
10
10
10
10
38
ENDCHAR
STARTCHAR char1031
ENCODING 1031
SWIDTH 416 0
DWIDTH 5 0
BBX 5 12 0 -2
BITMAP
44
44
00
38
10
10
10
10
10
10
10
38
ENDCHAR
STARTCHAR char1032
ENCODING 1032
SWIDTH 416 0
DWIDTH 5 0
BBX 5 12 0 -2
BITMAP
00
00
0E
04
04
04
04
04
04
44
44
38
ENDCHAR
STARTCHAR char1033
ENCODING 1033
SWIDTH 416 0
DWIDTH 5 0
BBX 5 12 0 -2
BITMAP
00
00
30
50
90
9C
92
92
92
92
92
9C
ENDCHAR
STARTCHAR char1034
ENCODING 1034
SWIDTH 416 0
DWIDTH 5 0
BBX 5 12 0 -2
BITMAP
00
00
90
90
90
9C
F2
92
92
92
92
9C
ENDCHAR
STARTCHAR char1035
ENCODING 1035
SWIDTH 416 0
DWIDTH 5 0
BBX 5 12 0 -2
BITMAP
00
00
F8
20
20
3C
22
22
22
22
22
22
ENDCHAR
STARTCHAR char1036
ENCODING 1036
SWIDTH 416 0
DWIDTH 5 0
BBX 5 12 0 -2
BITMAP
08
10
42
44
48
50
60
60
50
48
44
42
ENDCHAR
STARTCHAR char1037
ENCODING 1037
SWIDTH 416 0
DWIDTH 5 0
BBX 5 12 0 -2
BITMAP
10
08
42
42
42
46
4A
52
62
42
42
42
ENDCHAR
STARTCHAR char1038
ENCODING 1038
SWIDTH 416 0
DWIDTH 5 0
BBX 5 12 0 -2
BITMAP
24
18
42
42
42
42
42
3E
02
02
02
3C
ENDCHAR
STARTCHAR char1039
ENCODING 1039
SWIDTH 416 0
DWIDTH 5 0
BBX 5 12 0 -2
BITMAP
00
00
42
42
42
42
42
42
42
42
42
7E
ENDCHAR
STARTCHAR char1040
ENCODING 1040
SWIDTH 416 0
DWIDTH 5 0
BBX 5 12 0 -2
BITMAP
00
00
3C
42
42
42
42
7E
42
42
42
42
ENDCHAR
STARTCHAR char1041
ENCODING 1041
SWIDTH 416 0
DWIDTH 5 0
BBX 5 12 0 -2
BITMAP
00
00
7C
40
40
7C
42
42
42
42
42
7C
ENDCHAR
STARTCHAR char1042
ENCODING 1042
SWIDTH 416 0
DWIDTH 5 0
BBX 5 12 0 -2
BITMAP
00
00
7C
42
42
42
7C
42
42
42
42
7C
ENDCHAR
STARTCHAR char1043
ENCODING 1043
SWIDTH 416 0
DWIDTH 5 0
BBX 5 12 0 -2
BITMAP
00
00
7E
40
40
40
40
40
40
40
40
40
ENDCHAR
STARTCHAR char1044
ENCODING 1044
SWIDTH 416 0
DWIDTH 5 0
BBX 5 12 0 -2
BITMAP
00
00
3C
44
44
44
44
44
44
44
44
FE
ENDCHAR
STARTCHAR char1045
ENCODING 1045
SWIDTH 416 0
DWIDTH 5 0
BBX 5 12 0 -2
BITMAP
00
00
7E
40
40
40
78
40
40
40
40
7E
ENDCHAR
STARTCHAR char1046
ENCODING 1046
SWIDTH 416 0
DWIDTH 5 0
BBX 5 12 0 -2
BITMAP
00
00
92
92
92
54
38
54
92
92
92
92
ENDCHAR
STARTCHAR char1047
ENCODING 1047
SWIDTH 416 0
DWIDTH 5 0
BBX 5 12 0 -2
BITMAP
00
00
3C
42
42
02
1C
02
02
42
42
3C
ENDCHAR
STARTCHAR char1048
ENCODING 1048
SWIDTH 416 0
DWIDTH 5 0
BBX 5 12 0 -2
BITMAP
00
00
42
42
42
46
4A
52
62
42
42
42
ENDCHAR
STARTCHAR char1049
ENCODING 1049
SWIDTH 416 0
DWIDTH 5 0
BBX 5 12 0 -2
BITMAP
24
18
42
42
42
46
4A
52
62
42
42
42
ENDCHAR
STARTCHAR char1050
ENCODING 1050
SWIDTH 416 0
DWIDTH 5 0
BBX 5 12 0 -2
BITMAP
00
00
42
44
48
50
60
60
50
48
44
42
ENDCHAR
STARTCHAR char1051
ENCODING 1051
SWIDTH 416 0
DWIDTH 5 0
BBX 5 12 0 -2
BITMAP
00
00
0E
12
22
22
22
22
22
22
22
42
ENDCHAR
STARTCHAR char1052
ENCODING 1052
SWIDTH 416 0
DWIDTH 5 0
BBX 5 12 0 -2
BITMAP
00
00
82
C6
AA
92
82
82
82
82
82
82
ENDCHAR
STARTCHAR char1053
ENCODING 1053
SWIDTH 416 0
DWIDTH 5 0
BBX 5 12 0 -2
BITMAP
00
00
42
42
42
42
7E
42
42
42
42
42
ENDCHAR
STARTCHAR char1054
ENCODING 1054
SWIDTH 416 0
DWIDTH 5 0
BBX 5 12 0 -2
BITMAP
00
00
3C
42
42
42
42
42
42
42
42
3C
ENDCHAR
STARTCHAR char1055
ENCODING 1055
SWIDTH 416 0
DWIDTH 5 0
BBX 5 12 0 -2
BITMAP
00
00
7E
42
42
42
42
42
42
42
42
42
ENDCHAR
STARTCHAR char1056
ENCODING 1056
SWIDTH 416 0
DWIDTH 5 0
BBX 5 12 0 -2
BITMAP
00
00
7C
42
42
42
42
7C
40
40
40
40
ENDCHAR
STARTCHAR char1057
ENCODING 1057
SWIDTH 416 0
DWIDTH 5 0
BBX 5 12 0 -2
BITMAP
00
00
3C
42
42
40
40
40
40
42
42
3C
ENDCHAR
STARTCHAR char1058
ENCODING 1058
SWIDTH 416 0
DWIDTH 5 0
BBX 5 12 0 -2
BITMAP
00
00
FE
10
10
10
10
10
10
10
10
10
ENDCHAR
STARTCHAR char1059
ENCODING 1059
SWIDTH 416 0
DWIDTH 5 0
BBX 5 12 0 -2
BITMAP
00
00
42
42
42
42
42
3E
02
02
02
3C
ENDCHAR
STARTCHAR char1060
ENCODING 1060
SWIDTH 416 0
DWIDTH 5 0
BBX 5 12 0 -2
BITMAP
00
10
7C
92
92
92
92
92
92
92
92
7C
ENDCHAR
STARTCHAR char1061
ENCODING 1061
SWIDTH 416 0
DWIDTH 5 0
BBX 5 12 0 -2
BITMAP
00
00
42
42
24
24
18
18
24
24
42
42
ENDCHAR
STARTCHAR char1062
ENCODING 1062
SWIDTH 416 0
DWIDTH 5 0
BBX 5 12 0 -2
BITMAP
00
00
42
42
42
42
42
42
42
42
42
3F
ENDCHAR
STARTCHAR char1063
ENCODING 1063
SWIDTH 416 0
DWIDTH 5 0
BBX 5 12 0 -2
BITMAP
00
00
42
42
42
42
42
3E
02
02
02
02
ENDCHAR
STARTCHAR char1064
ENCODING 1064
SWIDTH 416 0
DWIDTH 5 0
BBX 5 12 0 -2
BITMAP
00
00
92
92
92
92
92
92
92
92
92
7E
ENDCHAR
STARTCHAR char1065
ENCODING 1065
SWIDTH 416 0
DWIDTH 5 0
BBX 5 12 0 -2
BITMAP
00
00
92
92
92
92
92
92
92
92
92
7F
ENDCHAR
STARTCHAR char1066
ENCODING 1066
SWIDTH 416 0
DWIDTH 5 0
BBX 5 12 0 -2
BITMAP
00
00
C0
40
40
7C
42
42
42
42
42
7C
ENDCHAR
STARTCHAR char1067
ENCODING 1067
SWIDTH 416 0
DWIDTH 5 0
BBX 5 12 0 -2
BITMAP
00
00
82
82
82
F2
8A
8A
8A
8A
8A
F2
ENDCHAR
STARTCHAR char1068
ENCODING 1068
SWIDTH 416 0
DWIDTH 5 0
BBX 5 12 0 -2
BITMAP
00
00
40
40
40
7C
42
42
42
42
42
7C
ENDCHAR
STARTCHAR char1069
ENCODING 1069
SWIDTH 416 0
DWIDTH 5 0
BBX 5 12 0 -2
BITMAP
00
00
3C
42
02
02
1E
02
02
02
42
3C
ENDCHAR
STARTCHAR char1070
ENCODING 1070
SWIDTH 416 0
DWIDTH 5 0
BBX 5 12 0 -2
BITMAP
00
00
8C
92
92
92
92
F2
92
92
92
8C
ENDCHAR
STARTCHAR char1071
ENCODING 1071
SWIDTH 416 0
DWIDTH 5 0
BBX 5 12 0 -2
BITMAP
00
00
3E
42
42
42
42
3E
0A
12
22
42
ENDCHAR
STARTCHAR char1072
ENCODING 1072
SWIDTH 416 0
DWIDTH 5 0
BBX 5 12 0 -2
BITMAP
00
00
00
00
00
3C
02
3E
42
42
42
3E
ENDCHAR
STARTCHAR char1073
ENCODING 1073
SWIDTH 416 0
DWIDTH 5 0
BBX 5 12 0 -2
BITMAP
00
00
3C
40
40
7C
42
42
42
42
42
7C
ENDCHAR
STARTCHAR char1074
ENCODING 1074
SWIDTH 416 0
DWIDTH 5 0
BBX 5 12 0 -2
BITMAP
00
00
38
44
44
48
7C
42
42
42
42
7C
ENDCHAR
STARTCHAR char1075
ENCODING 1075
SWIDTH 416 0
DWIDTH 5 0
BBX 5 12 0 -2
BITMAP
00
00
00
00
00
3C
02
02
3C
40
40
3C
ENDCHAR
STARTCHAR char1076
ENCODING 1076
SWIDTH 416 0
DWIDTH 5 0
BBX 5 12 0 -2
BITMAP
00
00
00
00
00
3E
42
42
42
42
42
3E
ENDCHAR
STARTCHAR char1077
ENCODING 1077
SWIDTH 416 0
DWIDTH 5 0
BBX 5 12 0 -2
BITMAP
00
00
00
00
00
3C
42
42
7E
40
40
3C
ENDCHAR
STARTCHAR char1078
ENCODING 1078
SWIDTH 416 0
DWIDTH 5 0
BBX 5 12 0 -2
BITMAP
00
00
00
00
00
92
92
54
38
54
92
92
ENDCHAR
STARTCHAR char1079
ENCODING 1079
SWIDTH 416 0
DWIDTH 5 0
BBX 5 12 0 -2
BITMAP
00
00
00
00
00
3C
42
02
1C
02
42
3C
ENDCHAR
STARTCHAR char1080
ENCODING 1080
SWIDTH 416 0
DWIDTH 5 0
BBX 5 12 0 -2
BITMAP
00
00
00
00
00
42
42
42
42
42
42
3E
ENDCHAR
STARTCHAR char1081
ENCODING 1081
SWIDTH 416 0
DWIDTH 5 0
BBX 5 12 0 -2
BITMAP
00
00
24
18
00
42
42
42
42
42
42
3E
ENDCHAR
STARTCHAR char1082
ENCODING 1082
SWIDTH 416 0
DWIDTH 5 0
BBX 5 12 0 -2
BITMAP
00
00
00
00
00
42
44
48
70
48
44
42
ENDCHAR
STARTCHAR char1083
ENCODING 1083
SWIDTH 416 0
DWIDTH 5 0
BBX 5 12 0 -2
BITMAP
00
00
00
00
00
1E
22
22
22
22
22
42
ENDCHAR
STARTCHAR char1084
ENCODING 1084
SWIDTH 416 0
DWIDTH 5 0
BBX 5 12 0 -2
BITMAP
00
00
00
00
00
82
C6
AA
92
82
82
82
ENDCHAR
STARTCHAR char1085
ENCODING 1085
SWIDTH 416 0
DWIDTH 5 0
BBX 5 12 0 -2
BITMAP
00
00
00
00
00
42
42
42
7E
42
42
42
ENDCHAR
STARTCHAR char1086
ENCODING 1086
SWIDTH 416 0
DWIDTH 5 0
BBX 5 12 0 -2
BITMAP
00
00
00
00
00
3C
42
42
42
42
42
3C
ENDCHAR
STARTCHAR char1087
ENCODING 1087
SWIDTH 416 0
DWIDTH 5 0
BBX 5 12 0 -2
BITMAP
00
00
00
00
00
7E
42
42
42
42
42
42
ENDCHAR
STARTCHAR char1088
ENCODING 1088
SWIDTH 416 0
DWIDTH 5 0
BBX 5 12 0 -2
BITMAP
00
00
00
00
00
7C
42
42
42
42
42
7C
ENDCHAR
STARTCHAR char1089
ENCODING 1089
SWIDTH 416 0
DWIDTH 5 0
BBX 5 12 0 -2
BITMAP
00
00
00
00
00
3C
42
40
40
40
42
3C
ENDCHAR
STARTCHAR char1090
ENCODING 1090
SWIDTH 416 0
DWIDTH 5 0
BBX 5 12 0 -2
BITMAP
00
00
00
00
00
FE
10
10
10
10
10
10
ENDCHAR
STARTCHAR char1091
ENCODING 1091
SWIDTH 416 0
DWIDTH 5 0
BBX 5 12 0 -2
BITMAP
00
00
00
00
00
42
42
42
42
42
42
3E
ENDCHAR
STARTCHAR char1092
ENCODING 1092
SWIDTH 416 0
DWIDTH 5 0
BBX 5 12 0 -2
BITMAP
00
00
00
00
10
7C
92
92
92
92
92
7C
ENDCHAR
STARTCHAR char1093
ENCODING 1093
SWIDTH 416 0
DWIDTH 5 0
BBX 5 12 0 -2
BITMAP
00
00
00
00
00
42
42
24
18
24
42
42
ENDCHAR
STARTCHAR char1094
ENCODING 1094
SWIDTH 416 0
DWIDTH 5 0
BBX 5 12 0 -2
BITMAP
00
00
00
00
00
42
42
42
42
42
42
3F
ENDCHAR
STARTCHAR char1095
ENCODING 1095
SWIDTH 416 0
DWIDTH 5 0
BBX 5 12 0 -2
BITMAP
00
00
00
00
00
42
42
42
3E
02
02
02
ENDCHAR
STARTCHAR char1096
ENCODING 1096
SWIDTH 416 0
DWIDTH 5 0
BBX 5 12 0 -2
BITMAP
00
00
00
00
00
92
92
92
92
92
92
7E
ENDCHAR
STARTCHAR char1097
ENCODING 1097
SWIDTH 416 0
DWIDTH 5 0
BBX 5 12 0 -2
BITMAP
00
00
00
00
00
92
92
92
92
92
92
7F
ENDCHAR
STARTCHAR char1098
ENCODING 1098
SWIDTH 416 0
DWIDTH 5 0
BBX 5 12 0 -2
BITMAP
00
00
00
00
00
60
20
3C
22
22
22
3C
ENDCHAR
STARTCHAR char1099
ENCODING 1099
SWIDTH 416 0
DWIDTH 5 0
BBX 5 12 0 -2
BITMAP
00
00
00
00
00
82
82
F2
8A
8A
8A
F2
ENDCHAR
STARTCHAR char1100
ENCODING 1100
SWIDTH 416 0
DWIDTH 5 0
BBX 5 12 0 -2
BITMAP
00
00
00
00
00
40
40
78
44
44
44
78
ENDCHAR
STARTCHAR char1101
ENCODING 1101
SWIDTH 416 0
DWIDTH 5 0
BBX 5 12 0 -2
BITMAP
00
00
00
00
00
3C
42
02
1E
02
42
3C
ENDCHAR
STARTCHAR char1102
ENCODING 1102
SWIDTH 416 0
DWIDTH 5 0
BBX 5 12 0 -2
BITMAP
00
00
00
00
00
8C
92
92
F2
92
92
8C
ENDCHAR
STARTCHAR char1103
ENCODING 1103
SWIDTH 416 0
DWIDTH 5 0
BBX 5 12 0 -2
BITMAP
00
00
00
00
00
3E
42
42
3E
12
22
42
ENDCHAR
STARTCHAR char1104
ENCODING 1104
SWIDTH 416 0
DWIDTH 5 0
BBX 5 12 0 -2
BITMAP
00
00
10
08
00
3C
42
42
7E
40
40
3C
ENDCHAR
STARTCHAR char1105
ENCODING 1105
SWIDTH 416 0
DWIDTH 5 0
BBX 5 12 0 -2
BITMAP
00
00
24
24
00
3C
42
42
7E
40
40
3C
ENDCHAR
STARTCHAR char1106
ENCODING 1106
SWIDTH 416 0
DWIDTH 5 0
BBX 5 12 0 -2
BITMAP
00
00
40
F8
40
7C
42
42
42
42
42
42
ENDCHAR
STARTCHAR char1107
ENCODING 1107
SWIDTH 416 0
DWIDTH 5 0
BBX 5 12 0 -2
BITMAP
00
00
08
10
00
3C
02
02
3C
40
40
3C
ENDCHAR
STARTCHAR char1108
ENCODING 1108
SWIDTH 416 0
DWIDTH 5 0
BBX 5 12 0 -2
BITMAP
00
00
00
00
00
3C
42
40
78
40
42
3C
ENDCHAR
STARTCHAR char1109
ENCODING 1109
SWIDTH 416 0
DWIDTH 5 0
BBX 5 12 0 -2
BITMAP
00
00
00
00
00
3E
40
40
3C
02
02
7C
ENDCHAR
STARTCHAR char1110
ENCODING 1110
SWIDTH 416 0
DWIDTH 5 0
BBX 5 12 0 -2
BITMAP
00
00
10
10
00
30
10
10
10
10
10
38
ENDCHAR
STARTCHAR char1111
ENCODING 1111
SWIDTH 416 0
DWIDTH 5 0
BBX 5 12 0 -2
BITMAP
00
00
48
48
00
30
10
10
10
10
10
38
ENDCHAR
STARTCHAR char1112
ENCODING 1112
SWIDTH 416 0
DWIDTH 5 0
BBX 5 12 0 -2
BITMAP
00
00
04
04
00
0C
04
04
04
04
04
44
ENDCHAR
STARTCHAR char1113
ENCODING 1113
SWIDTH 416 0
DWIDTH 5 0
BBX 5 12 0 -2
BITMAP
00
00
00
00
00
70
90
9C
92
92
92
9C
ENDCHAR
STARTCHAR char1114
ENCODING 1114
SWIDTH 416 0
DWIDTH 5 0
BBX 5 12 0 -2
BITMAP
00
00
00
00
00
90
90
9C
F2
92
92
9C
ENDCHAR
STARTCHAR char1115
ENCODING 1115
SWIDTH 416 0
DWIDTH 5 0
BBX 5 12 0 -2
BITMAP
00
00
40
F8
40
7C
42
42
42
42
42
42
ENDCHAR
STARTCHAR char1116
ENCODING 1116
SWIDTH 416 0
DWIDTH 5 0
BBX 5 12 0 -2
BITMAP
00
00
08
10
00
42
44
48
70
48
44
42
ENDCHAR
STARTCHAR char1117
ENCODING 1117
SWIDTH 416 0
DWIDTH 5 0
BBX 5 12 0 -2
BITMAP
00
00
10
08
00
42
42
42
42
42
42
3E
ENDCHAR
STARTCHAR char1118
ENCODING 1118
SWIDTH 416 0
DWIDTH 5 0
BBX 5 12 0 -2
BITMAP
00
00
24
18
00
42
42
42
42
42
42
3E
ENDCHAR
STARTCHAR char1119
ENCODING 1119
SWIDTH 416 0
DWIDTH 5 0
BBX 5 12 0 -2
BITMAP
00
00
00
00
00
42
42
42
42
42
42
7E
ENDCHAR
STARTCHAR char1168
ENCODING 1168
SWIDTH 416 0
DWIDTH 5 0
BBX 5 12 0 -2
BITMAP
02
02
7E
40
40
40
40
40
40
40
40
40
ENDCHAR
STARTCHAR char1169
ENCODING 1169
SWIDTH 416 0
DWIDTH 5 0
BBX 5 12 0 -2
BITMAP
00
00
00
20
20
3C
02
02
3C
40
40
3C
ENDCHAR
STARTCHAR char1170
ENCODING 1170
SWIDTH 416 0
DWIDTH 5 0
BBX 5 12 0 -2
BITMAP
00
00
7E
40
40
40
40
F8
40
40
40
40
ENDCHAR
STARTCHAR char1171
ENCODING 1171
SWIDTH 416 0
DWIDTH 5 0
BBX 5 12 0 -2
BITMAP
00
00
00
00
00
7E
40
40
F8
40
40
40
ENDCHAR
STARTCHAR char1172
ENCODING 1172
SWIDTH 416 0
DWIDTH 5 0
BBX 5 12 0 -2
BITMAP
00
00
7E
40
40
40
40
7C
42
42
42
42
ENDCHAR
STARTCHAR char1173
ENCODING 1173
SWIDTH 416 0
DWIDTH 5 0
BBX 5 12 0 -2
BITMAP
00
00
00
00
00
7E
40
40
78
44
44
44
ENDCHAR
STARTCHAR char1174
ENCODING 1174
SWIDTH 416 0
DWIDTH 5 0
BBX 5 12 0 -2
BITMAP
00
00
92
92
92
54
38
54
92
92
92
93
ENDCHAR
STARTCHAR char1175
ENCODING 1175
SWIDTH 416 0
DWIDTH 5 0
BBX 5 12 0 -2
BITMAP
00
00
00
00
00
92
92
54
38
54
92
93
ENDCHAR
STARTCHAR char1176
ENCODING 1176
SWIDTH 416 0
DWIDTH 5 0
BBX 5 12 0 -2
BITMAP
00
00
3C
42
42
02
1C
02
02
42
42
3C
ENDCHAR
STARTCHAR char1177
ENCODING 1177
SWIDTH 416 0
DWIDTH 5 0
BBX 5 12 0 -2
BITMAP
00
00
00
00
00
3C
42
02
1C
02
42
3C
ENDCHAR
STARTCHAR char1178
ENCODING 1178
SWIDTH 416 0
DWIDTH 5 0
BBX 5 12 0 -2
BITMAP
00
00
42
44
48
50
60
60
50
48
44
43
ENDCHAR
STARTCHAR char1179
ENCODING 1179
SWIDTH 416 0
DWIDTH 5 0
BBX 5 12 0 -2
BITMAP
00
00
00
00
00
42
44
48
70
48
44
43
ENDCHAR
STARTCHAR char1180
ENCODING 1180
SWIDTH 416 0
DWIDTH 5 0
BBX 5 12 0 -2
BITMAP
00
00
42
42
54
58
70
70
58
54
42
42
ENDCHAR
STARTCHAR char1181
ENCODING 1181
SWIDTH 416 0
DWIDTH 5 0
BBX 5 12 0 -2
BITMAP
00
00
00
00
00
42
54
58
70
58
54
42
ENDCHAR
STARTCHAR char1184
ENCODING 1184
SWIDTH 416 0
DWIDTH 5 0
BBX 5 12 0 -2
BITMAP
00
00
C2
44
48
50
60
60
50
48
44
42
ENDCHAR
STARTCHAR char1185
ENCODING 1185
SWIDTH 416 0
DWIDTH 5 0
BBX 5 12 0 -2
BITMAP
00
00
00
00
00
C2
44
48
70
48
44
42
ENDCHAR
STARTCHAR char1186
ENCODING 1186
SWIDTH 416 0
DWIDTH 5 0
BBX 5 12 0 -2
BITMAP
00
00
42
42
42
42
7E
42
42
42
42
43
ENDCHAR
STARTCHAR char1187
ENCODING 1187
SWIDTH 416 0
DWIDTH 5 0
BBX 5 12 0 -2
BITMAP
00
00
00
00
00
42
42
42
7E
42
42
43
ENDCHAR
STARTCHAR char1188
ENCODING 1188
SWIDTH 416 0
DWIDTH 5 0
BBX 5 12 0 -2
BITMAP
00
00
8E
88
88
88
F8
88
88
88
88
88
ENDCHAR
STARTCHAR char1189
ENCODING 1189
SWIDTH 416 0
DWIDTH 5 0
BBX 5 12 0 -2
BITMAP
00
00
00
00
00
8E
88
88
F8
88
88
88
ENDCHAR
STARTCHAR char1194
ENCODING 1194
SWIDTH 416 0
DWIDTH 5 0
BBX 5 12 0 -2
BITMAP
00
00
3C
42
42
40
40
40
40
42
42
3C
ENDCHAR
STARTCHAR char1195
ENCODING 1195
SWIDTH 416 0
DWIDTH 5 0
BBX 5 12 0 -2
BITMAP
00
00
00
00
00
3C
42
40
40
40
42
3C
ENDCHAR
STARTCHAR char1198
ENCODING 1198
SWIDTH 416 0
DWIDTH 5 0
BBX 5 12 0 -2
BITMAP
00
00
82
82
44
44
28
10
10
10
10
10
ENDCHAR
STARTCHAR char1199
ENCODING 1199
SWIDTH 416 0
DWIDTH 5 0
BBX 5 12 0 -2
BITMAP
00
00
00
00
00
82
82
44
44
28
28
10
ENDCHAR
STARTCHAR char1200
ENCODING 1200
SWIDTH 416 0
DWIDTH 5 0
BBX 5 12 0 -2
BITMAP
00
00
82
82
44
44
28
10
7C
10
10
10
ENDCHAR
STARTCHAR char1201
ENCODING 1201
SWIDTH 416 0
DWIDTH 5 0
BBX 5 12 0 -2
BITMAP
00
00
00
00
00
82
82
44
44
28
28
10
ENDCHAR
STARTCHAR char1202
ENCODING 1202
SWIDTH 416 0
DWIDTH 5 0
BBX 5 12 0 -2
BITMAP
00
00
42
42
24
24
18
18
24
24
42
43
ENDCHAR
STARTCHAR char1203
ENCODING 1203
SWIDTH 416 0
DWIDTH 5 0
BBX 5 12 0 -2
BITMAP
00
00
00
00
00
42
42
24
18
24
42
43
ENDCHAR
STARTCHAR char1206
ENCODING 1206
SWIDTH 416 0
DWIDTH 5 0
BBX 5 12 0 -2
BITMAP
00
00
42
42
42
42
42
3E
02
02
02
03
ENDCHAR
STARTCHAR char1207
ENCODING 1207
SWIDTH 416 0
DWIDTH 5 0
BBX 5 12 0 -2
BITMAP
00
00
00
00
00
42
42
42
3E
02
02
03
ENDCHAR
STARTCHAR char1208
ENCODING 1208
SWIDTH 416 0
DWIDTH 5 0
BBX 5 12 0 -2
BITMAP
00
00
42
42
42
52
52
3E
12
12
02
02
ENDCHAR
STARTCHAR char1209
ENCODING 1209
SWIDTH 416 0
DWIDTH 5 0
BBX 5 12 0 -2
BITMAP
00
00
00
00
00
42
42
52
3E
12
02
02
ENDCHAR
STARTCHAR char1210
ENCODING 1210
SWIDTH 416 0
DWIDTH 5 0
BBX 5 12 0 -2
BITMAP
00
00
40
40
40
40
7C
42
42
42
42
42
ENDCHAR
STARTCHAR char1211
ENCODING 1211
SWIDTH 416 0
DWIDTH 5 0
BBX 5 12 0 -2
BITMAP
00
00
00
00
00
40
40
7C
42
42
42
42
ENDCHAR
STARTCHAR char1232
ENCODING 1232
SWIDTH 416 0
DWIDTH 5 0
BBX 5 12 0 -2
BITMAP
24
18
00
3C
42
42
42
7E
42
42
42
42
ENDCHAR
STARTCHAR char1233
ENCODING 1233
SWIDTH 416 0
DWIDTH 5 0
BBX 5 12 0 -2
BITMAP
00
00
24
18
00
3C
02
3E
42
42
42
3E
ENDCHAR
STARTCHAR char1234
ENCODING 1234
SWIDTH 416 0
DWIDTH 5 0
BBX 5 12 0 -2
BITMAP
24
24
00
3C
42
42
42
7E
42
42
42
42
ENDCHAR
STARTCHAR char1235
ENCODING 1235
SWIDTH 416 0
DWIDTH 5 0
BBX 5 12 0 -2
BITMAP
00
00
24
24
00
3C
02
3E
42
42
42
3E
ENDCHAR
STARTCHAR char1236
ENCODING 1236
SWIDTH 416 0
DWIDTH 5 0
BBX 5 12 0 -2
BITMAP
00
00
7E
90
90
90
FC
90
90
90
90
9E
ENDCHAR
STARTCHAR char1237
ENCODING 1237
SWIDTH 416 0
DWIDTH 5 0
BBX 5 12 0 -2
BITMAP
00
00
00
00
00
6C
12
72
9E
90
90
6C
ENDCHAR
STARTCHAR char1238
ENCODING 1238
SWIDTH 416 0
DWIDTH 5 0
BBX 5 12 0 -2
BITMAP
24
18
00
7E
40
40
40
78
40
40
40
7E
ENDCHAR
STARTCHAR char1239
ENCODING 1239
SWIDTH 416 0
DWIDTH 5 0
BBX 5 12 0 -2
BITMAP
00
00
24
18
00
3C
42
42
7E
40
40
3C
ENDCHAR
STARTCHAR char1240
ENCODING 1240
SWIDTH 416 0
DWIDTH 5 0
BBX 5 12 0 -2
BITMAP
00
00
3C
42
02
02
7E
42
42
42
42
3C
ENDCHAR
STARTCHAR char1241
ENCODING 1241
SWIDTH 416 0
DWIDTH 5 0
BBX 5 12 0 -2
BITMAP
00
00
00
00
00
3C
02
02
7E
42
42
3C
ENDCHAR
STARTCHAR char1242
ENCODING 1242
SWIDTH 416 0
DWIDTH 5 0
BBX 5 12 0 -2
BITMAP
24
24
00
3C
42
02
02
7E
42
42
42
3C
ENDCHAR
STARTCHAR char1243
ENCODING 1243
SWIDTH 416 0
DWIDTH 5 0
BBX 5 12 0 -2
BITMAP
00
00
24
24
00
3C
02
02
7E
42
42
3C
ENDCHAR
STARTCHAR char1244
ENCODING 1244
SWIDTH 416 0
DWIDTH 5 0
BBX 5 12 0 -2
BITMAP
44
44
00
92
92
92
54
38
54
92
92
92
ENDCHAR
STARTCHAR char1245
ENCODING 1245
SWIDTH 416 0
DWIDTH 5 0
BBX 5 12 0 -2
BITMAP
00
00
44
44
00
92
92
54
38
54
92
92
ENDCHAR
STARTCHAR char1246
ENCODING 1246
SWIDTH 416 0
DWIDTH 5 0
BBX 5 12 0 -2
BITMAP
24
24
00
3C
42
42
02
1C
02
42
42
3C
ENDCHAR
STARTCHAR char1247
ENCODING 1247
SWIDTH 416 0
DWIDTH 5 0
BBX 5 12 0 -2
BITMAP
00
00
24
24
00
3C
42
02
1C
02
42
3C
ENDCHAR
STARTCHAR char1250
ENCODING 1250
SWIDTH 416 0
DWIDTH 5 0
BBX 5 12 0 -2
BITMAP
3C
00
42
42
42
46
4A
52
62
42
42
42
ENDCHAR
STARTCHAR char1251
ENCODING 1251
SWIDTH 416 0
DWIDTH 5 0
BBX 5 12 0 -2
BITMAP
00
00
00
3C
00
42
42
42
42
42
42
3E
ENDCHAR
STARTCHAR char1252
ENCODING 1252
SWIDTH 416 0
DWIDTH 5 0
BBX 5 12 0 -2
BITMAP
24
24
00
42
42
42
46
4A
52
62
42
42
ENDCHAR
STARTCHAR char1253
ENCODING 1253
SWIDTH 416 0
DWIDTH 5 0
BBX 5 12 0 -2
BITMAP
00
00
24
24
00
42
42
42
42
42
42
3E
ENDCHAR
STARTCHAR char1254
ENCODING 1254
SWIDTH 416 0
DWIDTH 5 0
BBX 5 12 0 -2
BITMAP
24
24
00
3C
42
42
42
42
42
42
42
3C
ENDCHAR
STARTCHAR char1255
ENCODING 1255
SWIDTH 416 0
DWIDTH 5 0
BBX 5 12 0 -2
BITMAP
00
00
24
24
00
3C
42
42
42
42
42
3C
ENDCHAR
STARTCHAR char1256
ENCODING 1256
SWIDTH 416 0
DWIDTH 5 0
BBX 5 12 0 -2
BITMAP
00
00
3C
42
42
42
7E
42
42
42
42
3C
ENDCHAR
STARTCHAR char1257
ENCODING 1257
SWIDTH 416 0
DWIDTH 5 0
BBX 5 12 0 -2
BITMAP
00
00
00
00
00
3C
42
42
7E
42
42
3C
ENDCHAR
STARTCHAR char1258
ENCODING 1258
SWIDTH 416 0
DWIDTH 5 0
BBX 5 12 0 -2
BITMAP
24
24
00
3C
42
42
42
7E
42
42
42
3C
ENDCHAR
STARTCHAR char1259
ENCODING 1259
SWIDTH 416 0
DWIDTH 5 0
BBX 5 12 0 -2
BITMAP
00
00
24
24
00
3C
42
42
7E
42
42
3C
ENDCHAR
STARTCHAR char1260
ENCODING 1260
SWIDTH 416 0
DWIDTH 5 0
BBX 5 12 0 -2
BITMAP
24
24
00
3C
42
02
02
1E
02
02
42
3C
ENDCHAR
STARTCHAR char1261
ENCODING 1261
SWIDTH 416 0
DWIDTH 5 0
BBX 5 12 0 -2
BITMAP
00
00
24
24
00
3C
42
02
1E
02
42
3C
ENDCHAR
STARTCHAR char1262
ENCODING 1262
SWIDTH 416 0
DWIDTH 5 0
BBX 5 12 0 -2
BITMAP
3C
00
42
42
42
42
42
3E
02
02
02
3C
ENDCHAR
STARTCHAR char1263
ENCODING 1263
SWIDTH 416 0
DWIDTH 5 0
BBX 5 12 0 -2
BITMAP
00
00
00
3C
00
42
42
42
42
42
42
3E
ENDCHAR
STARTCHAR char1264
ENCODING 1264
SWIDTH 416 0
DWIDTH 5 0
BBX 5 12 0 -2
BITMAP
24
24
00
42
42
42
42
3E
02
02
02
3C
ENDCHAR
STARTCHAR char1265
ENCODING 1265
SWIDTH 416 0
DWIDTH 5 0
BBX 5 12 0 -2
BITMAP
00
00
24
24
00
42
42
42
42
42
42
3E
ENDCHAR
STARTCHAR char1266
ENCODING 1266
SWIDTH 416 0
DWIDTH 5 0
BBX 5 12 0 -2
BITMAP
12
24
00
42
42
42
42
3E
02
02
02
3C
ENDCHAR
STARTCHAR char1267
ENCODING 1267
SWIDTH 416 0
DWIDTH 5 0
BBX 5 12 0 -2
BITMAP
00
00
12
24
00
42
42
42
42
42
42
3E
ENDCHAR
STARTCHAR char1268
ENCODING 1268
SWIDTH 416 0
DWIDTH 5 0
BBX 5 12 0 -2
BITMAP
24
24
00
42
42
42
42
3E
02
02
02
02
ENDCHAR
STARTCHAR char1269
ENCODING 1269
SWIDTH 416 0
DWIDTH 5 0
BBX 5 12 0 -2
BITMAP
00
00
24
24
00
42
42
42
3E
02
02
02
ENDCHAR
STARTCHAR char1272
ENCODING 1272
SWIDTH 416 0
DWIDTH 5 0
BBX 5 12 0 -2
BITMAP
48
48
00
82
82
82
F2
8A
8A
8A
8A
F2
ENDCHAR
STARTCHAR char1273
ENCODING 1273
SWIDTH 416 0
DWIDTH 5 0
BBX 5 12 0 -2
BITMAP
00
00
48
48
00
82
82
F2
8A
8A
8A
F2
ENDCHAR
STARTCHAR char8230
ENCODING 8230
SWIDTH 416 0
DWIDTH 5 0
BBX 5 12 0 -2
BITMAP
00
00
00
00
00
00
00
00
00
A8
00
00
ENDCHAR
STARTCHAR char8486
ENCODING 8486
SWIDTH 416 0
DWIDTH 5 0
BBX 5 12 0 -2
BITMAP
00
60
90
90
90
90
90
90
90
60
60
F0
ENDCHAR
ENDFONT
